<mxfile host="localhost" modified="2020-05-16T16:02:57.589Z" agent="5.0 (Windows NT 10.0; Win64; x64) AppleWebKit/537.36 (KHTML, like Gecko) Code/1.45.1 Chrome/78.0.3904.130 Electron/7.2.4 Safari/537.36" etag="nbw-4uUMj18Dm6IjkpDe" version="13.0.9" pages="10">
    <diagram id="7JB59oieehFTKTCMfLrM" name="Services">
        <mxGraphModel dx="1532" dy="1152" grid="1" gridSize="10" guides="1" tooltips="1" connect="1" arrows="1" fold="1" page="1" pageScale="1" pageWidth="1100" pageHeight="850" math="0" shadow="0">
            <root>
                <mxCell id="0"/>
                <mxCell id="1" parent="0"/>
                <mxCell id="2" value="&lt;font color=&quot;#000000&quot;&gt;auth&lt;/font&gt;" style="rounded=0;whiteSpace=wrap;html=1;fontSize=24;align=center;fillColor=#dae8fc;strokeColor=#6c8ebf;fontStyle=1" parent="1" vertex="1">
                    <mxGeometry x="270" y="260" width="140" height="50" as="geometry"/>
                </mxCell>
                <mxCell id="3" value="&lt;font color=&quot;#000000&quot;&gt;orders&lt;/font&gt;" style="rounded=0;whiteSpace=wrap;html=1;fontSize=24;align=center;fillColor=#dae8fc;strokeColor=#6c8ebf;fontStyle=1" parent="1" vertex="1">
                    <mxGeometry x="270" y="380" width="140" height="50" as="geometry"/>
                </mxCell>
                <mxCell id="4" value="&lt;font color=&quot;#000000&quot;&gt;expiration&lt;/font&gt;" style="rounded=0;whiteSpace=wrap;html=1;fontSize=24;align=center;fillColor=#dae8fc;strokeColor=#6c8ebf;fontStyle=1" parent="1" vertex="1">
                    <mxGeometry x="270" y="440" width="140" height="50" as="geometry"/>
                </mxCell>
                <mxCell id="5" value="&lt;font color=&quot;#000000&quot;&gt;payments&lt;/font&gt;" style="rounded=0;whiteSpace=wrap;html=1;fontSize=24;align=center;fillColor=#dae8fc;strokeColor=#6c8ebf;fontStyle=1" parent="1" vertex="1">
                    <mxGeometry x="270" y="500" width="140" height="50" as="geometry"/>
                </mxCell>
                <mxCell id="6" value="&lt;font color=&quot;#000000&quot;&gt;tickets&lt;/font&gt;" style="rounded=0;whiteSpace=wrap;html=1;fontSize=24;align=center;fillColor=#dae8fc;strokeColor=#6c8ebf;fontStyle=1" parent="1" vertex="1">
                    <mxGeometry x="270" y="320" width="140" height="50" as="geometry"/>
                </mxCell>
                <mxCell id="7" value="Services" style="text;html=1;strokeColor=none;fillColor=none;align=center;verticalAlign=middle;whiteSpace=wrap;rounded=0;fontSize=24;fontStyle=5" parent="1" vertex="1">
                    <mxGeometry x="430" y="220" width="160" height="30" as="geometry"/>
                </mxCell>
                <mxCell id="8" value="" style="shape=curlyBracket;whiteSpace=wrap;html=1;rounded=1;fontSize=24;align=center;rotation=-180;" parent="1" vertex="1">
                    <mxGeometry x="420" y="260" width="30" height="50" as="geometry"/>
                </mxCell>
                <mxCell id="9" value="Everything related to user signup/signin/signout" style="text;html=1;strokeColor=none;fillColor=none;align=left;verticalAlign=middle;whiteSpace=wrap;rounded=0;fontSize=15;" parent="1" vertex="1">
                    <mxGeometry x="450" y="267.5" width="210" height="35" as="geometry"/>
                </mxCell>
                <mxCell id="10" value="" style="shape=curlyBracket;whiteSpace=wrap;html=1;rounded=1;fontSize=24;align=center;rotation=-180;" parent="1" vertex="1">
                    <mxGeometry x="420" y="320" width="30" height="50" as="geometry"/>
                </mxCell>
                <mxCell id="11" value="Ticket creation/editing.&amp;nbsp; Knows whether a ticket can be updated" style="text;html=1;strokeColor=none;fillColor=none;align=left;verticalAlign=middle;whiteSpace=wrap;rounded=0;fontSize=15;" parent="1" vertex="1">
                    <mxGeometry x="450" y="327.5" width="300" height="35" as="geometry"/>
                </mxCell>
                <mxCell id="12" value="" style="shape=curlyBracket;whiteSpace=wrap;html=1;rounded=1;fontSize=24;align=center;rotation=-180;" parent="1" vertex="1">
                    <mxGeometry x="420" y="380" width="30" height="50" as="geometry"/>
                </mxCell>
                <mxCell id="13" value="Order creation/editing" style="text;html=1;strokeColor=none;fillColor=none;align=left;verticalAlign=middle;whiteSpace=wrap;rounded=0;fontSize=15;" parent="1" vertex="1">
                    <mxGeometry x="450" y="387.5" width="210" height="35" as="geometry"/>
                </mxCell>
                <mxCell id="14" value="" style="shape=curlyBracket;whiteSpace=wrap;html=1;rounded=1;fontSize=24;align=center;rotation=-180;" parent="1" vertex="1">
                    <mxGeometry x="420" y="440" width="30" height="50" as="geometry"/>
                </mxCell>
                <mxCell id="15" value="Watches for orders to be created, cancels them after 15 minutes" style="text;html=1;strokeColor=none;fillColor=none;align=left;verticalAlign=middle;whiteSpace=wrap;rounded=0;fontSize=15;" parent="1" vertex="1">
                    <mxGeometry x="450" y="447.5" width="260" height="35" as="geometry"/>
                </mxCell>
                <mxCell id="16" value="" style="shape=curlyBracket;whiteSpace=wrap;html=1;rounded=1;fontSize=24;align=center;rotation=-180;" parent="1" vertex="1">
                    <mxGeometry x="420" y="500" width="30" height="50" as="geometry"/>
                </mxCell>
                <mxCell id="17" value="Handles credit card payments.&amp;nbsp; Cancels orders if payments fails, completes if payment succeeds" style="text;html=1;strokeColor=none;fillColor=none;align=left;verticalAlign=middle;whiteSpace=wrap;rounded=0;fontSize=15;" parent="1" vertex="1">
                    <mxGeometry x="450" y="507.5" width="330" height="35" as="geometry"/>
                </mxCell>
            </root>
        </mxGraphModel>
    </diagram>
    <diagram id="BKBlW-0GEN3eHi1ZpoTZ" name="Events">
        &#xa;        &#xa;        &#xa;        
        <mxGraphModel dx="1532" dy="1152" grid="1" gridSize="10" guides="1" tooltips="1" connect="1" arrows="1" fold="1" page="1" pageScale="1" pageWidth="1100" pageHeight="850" math="0" shadow="0">
            &#xa;            &#xa;            &#xa;            
            <root>
                &#xa;                &#xa;                &#xa;                
                <mxCell id="4pDTh1E1bMFyDBdhGgJ_-0"/>
                &#xa;                &#xa;                &#xa;                
                <mxCell id="4pDTh1E1bMFyDBdhGgJ_-1" parent="4pDTh1E1bMFyDBdhGgJ_-0"/>
                &#xa;                &#xa;                &#xa;                
                <mxCell id="4pDTh1E1bMFyDBdhGgJ_-11" value="" style="group;movable=0;resizable=0;rotatable=0;deletable=0;editable=0;connectable=0;" parent="4pDTh1E1bMFyDBdhGgJ_-1" vertex="1" connectable="0">
                    &#xa;                    &#xa;                    &#xa;                    
                    <mxGeometry x="140" y="220" width="750" height="390" as="geometry"/>
                    &#xa;                    &#xa;                &#xa;                
                </mxCell>
                &#xa;                &#xa;                &#xa;                
                <mxCell id="4pDTh1E1bMFyDBdhGgJ_-2" value="&lt;b&gt;UserCreated&lt;/b&gt;" style="rounded=0;whiteSpace=wrap;html=1;fontSize=15;align=center;fillColor=#dae8fc;strokeColor=#6c8ebf;fontColor=#000000;movable=0;resizable=0;rotatable=0;deletable=0;editable=0;connectable=0;" parent="4pDTh1E1bMFyDBdhGgJ_-11" vertex="1">
                    &#xa;                    &#xa;                    &#xa;                    
                    <mxGeometry y="69.64285714285714" width="241.52542372881354" height="41.785714285714285" as="geometry"/>
                    &#xa;                    &#xa;                &#xa;                
                </mxCell>
                &#xa;                &#xa;                &#xa;                
                <mxCell id="4pDTh1E1bMFyDBdhGgJ_-3" value="&lt;b&gt;UserUpdated&lt;/b&gt;" style="rounded=0;whiteSpace=wrap;html=1;fontSize=15;align=center;fillColor=#dae8fc;strokeColor=#6c8ebf;fontColor=#000000;movable=0;resizable=0;rotatable=0;deletable=0;editable=0;connectable=0;" parent="4pDTh1E1bMFyDBdhGgJ_-11" vertex="1">
                    &#xa;                    &#xa;                    &#xa;                    
                    <mxGeometry x="254.23728813559322" y="69.64285714285714" width="241.52542372881354" height="41.785714285714285" as="geometry"/>
                    &#xa;                    &#xa;                &#xa;                
                </mxCell>
                &#xa;                &#xa;                &#xa;                
                <mxCell id="4pDTh1E1bMFyDBdhGgJ_-4" value="&lt;b&gt;OrderCreated&lt;/b&gt;" style="rounded=0;whiteSpace=wrap;html=1;fontSize=15;align=center;fillColor=#dae8fc;strokeColor=#6c8ebf;fontColor=#000000;movable=0;resizable=0;rotatable=0;deletable=0;editable=0;connectable=0;" parent="4pDTh1E1bMFyDBdhGgJ_-11" vertex="1">
                    &#xa;                    &#xa;                    &#xa;                    
                    <mxGeometry y="162.9642857142857" width="241.52542372881354" height="41.785714285714285" as="geometry"/>
                    &#xa;                    &#xa;                &#xa;                
                </mxCell>
                &#xa;                &#xa;                &#xa;                
                <mxCell id="4pDTh1E1bMFyDBdhGgJ_-5" value="&lt;b&gt;OrderCancelled&lt;/b&gt;" style="rounded=0;whiteSpace=wrap;html=1;fontSize=15;align=center;fillColor=#dae8fc;strokeColor=#6c8ebf;fontColor=#000000;movable=0;resizable=0;rotatable=0;deletable=0;editable=0;connectable=0;" parent="4pDTh1E1bMFyDBdhGgJ_-11" vertex="1">
                    &#xa;                    &#xa;                    &#xa;                    
                    <mxGeometry x="254.23728813559322" y="162.9642857142857" width="241.52542372881354" height="41.785714285714285" as="geometry"/>
                    &#xa;                    &#xa;                &#xa;                
                </mxCell>
                &#xa;                &#xa;                &#xa;                
                <mxCell id="4pDTh1E1bMFyDBdhGgJ_-6" value="&lt;b&gt;OrderExpired&lt;/b&gt;" style="rounded=0;whiteSpace=wrap;html=1;fontSize=15;align=center;fillColor=#dae8fc;strokeColor=#6c8ebf;fontColor=#000000;movable=0;resizable=0;rotatable=0;deletable=0;editable=0;connectable=0;" parent="4pDTh1E1bMFyDBdhGgJ_-11" vertex="1">
                    &#xa;                    &#xa;                    &#xa;                    
                    <mxGeometry x="508.47457627118644" y="162.9642857142857" width="241.52542372881354" height="41.785714285714285" as="geometry"/>
                    &#xa;                    &#xa;                &#xa;                
                </mxCell>
                &#xa;                &#xa;                &#xa;                
                <mxCell id="4pDTh1E1bMFyDBdhGgJ_-7" value="&lt;b&gt;TicketCreated&lt;/b&gt;" style="rounded=0;whiteSpace=wrap;html=1;fontSize=15;align=center;fillColor=#dae8fc;strokeColor=#6c8ebf;fontColor=#000000;movable=0;resizable=0;rotatable=0;deletable=0;editable=0;connectable=0;" parent="4pDTh1E1bMFyDBdhGgJ_-11" vertex="1">
                    &#xa;                    &#xa;                    &#xa;                    
                    <mxGeometry y="254.89285714285714" width="241.52542372881354" height="41.785714285714285" as="geometry"/>
                    &#xa;                    &#xa;                &#xa;                
                </mxCell>
                &#xa;                &#xa;                &#xa;                
                <mxCell id="4pDTh1E1bMFyDBdhGgJ_-8" value="&lt;b&gt;TicketUpdated&lt;/b&gt;" style="rounded=0;whiteSpace=wrap;html=1;fontSize=15;align=center;fillColor=#dae8fc;strokeColor=#6c8ebf;fontColor=#000000;movable=0;resizable=0;rotatable=0;deletable=0;editable=0;connectable=0;" parent="4pDTh1E1bMFyDBdhGgJ_-11" vertex="1">
                    &#xa;                    &#xa;                    &#xa;                    
                    <mxGeometry x="254.23728813559322" y="254.89285714285714" width="241.52542372881354" height="41.785714285714285" as="geometry"/>
                    &#xa;                    &#xa;                &#xa;                
                </mxCell>
                &#xa;                &#xa;                &#xa;                
                <mxCell id="4pDTh1E1bMFyDBdhGgJ_-9" value="&lt;b&gt;ChargeCreated&lt;/b&gt;" style="rounded=0;whiteSpace=wrap;html=1;fontSize=15;align=center;fillColor=#dae8fc;strokeColor=#6c8ebf;fontColor=#000000;movable=0;resizable=0;rotatable=0;deletable=0;editable=0;connectable=0;" parent="4pDTh1E1bMFyDBdhGgJ_-11" vertex="1">
                    &#xa;                    &#xa;                    &#xa;                    
                    <mxGeometry y="348.2142857142857" width="241.52542372881354" height="41.785714285714285" as="geometry"/>
                    &#xa;                    &#xa;                &#xa;                
                </mxCell>
                &#xa;                &#xa;                &#xa;                
                <mxCell id="4pDTh1E1bMFyDBdhGgJ_-10" value="Events" style="text;html=1;strokeColor=none;fillColor=none;align=center;verticalAlign=middle;whiteSpace=wrap;rounded=0;fontSize=24;fontStyle=5;movable=0;resizable=0;rotatable=0;deletable=0;editable=0;connectable=0;" parent="4pDTh1E1bMFyDBdhGgJ_-11" vertex="1">
                    &#xa;                    &#xa;                    &#xa;                    
                    <mxGeometry x="273.3050847457627" width="203.38983050847457" height="41.785714285714285" as="geometry"/>
                    &#xa;                    &#xa;                &#xa;                
                </mxCell>
                &#xa;                &#xa;            &#xa;            
            </root>
            &#xa;            &#xa;        &#xa;        
        </mxGraphModel>
        &#xa;        &#xa;    &#xa;    
    </diagram>
    <diagram id="avMiea8uMLN-ebtxR3x6" name="UI">
        &#xa;        &#xa;        &#xa;        
        <mxGraphModel dx="1532" dy="1152" grid="1" gridSize="10" guides="1" tooltips="1" connect="1" arrows="1" fold="1" page="1" pageScale="1" pageWidth="1100" pageHeight="850" math="0" shadow="0">
            &#xa;            &#xa;            &#xa;            
            <root>
                &#xa;                &#xa;                &#xa;                
                <mxCell id="JukfTVj9fwfsoRSbGSah-0"/>
                &#xa;                &#xa;                &#xa;                
                <mxCell id="JukfTVj9fwfsoRSbGSah-1" parent="JukfTVj9fwfsoRSbGSah-0"/>
                &#xa;                &#xa;                &#xa;                
                <mxCell id="JukfTVj9fwfsoRSbGSah-2" value="" style="strokeWidth=1;shadow=0;dashed=0;align=center;html=1;shape=mxgraph.mockup.containers.browserWindow;rSize=0;strokeColor=#666666;strokeColor2=#008cff;strokeColor3=#c4c4c4;mainText=,;recursiveResize=0;fontSize=16;" parent="JukfTVj9fwfsoRSbGSah-1" vertex="1">
                    &#xa;                    &#xa;                    &#xa;                    
                    <mxGeometry x="130" y="200" width="450" height="350" as="geometry"/>
                    &#xa;                    &#xa;                &#xa;                
                </mxCell>
                &#xa;                &#xa;                &#xa;                
                <mxCell id="JukfTVj9fwfsoRSbGSah-3" value="Page 1" style="strokeWidth=1;shadow=0;dashed=0;align=center;html=1;shape=mxgraph.mockup.containers.anchor;fontSize=17;fontColor=#666666;align=left;" parent="JukfTVj9fwfsoRSbGSah-2" vertex="1">
                    &#xa;                    &#xa;                    &#xa;                    
                    <mxGeometry x="60" y="12" width="110" height="26" as="geometry"/>
                    &#xa;                    &#xa;                &#xa;                
                </mxCell>
                &#xa;                &#xa;                &#xa;                
                <mxCell id="JukfTVj9fwfsoRSbGSah-4" value="https://www.draw.io" style="strokeWidth=1;shadow=0;dashed=0;align=center;html=1;shape=mxgraph.mockup.containers.anchor;rSize=0;fontSize=17;fontColor=#666666;align=left;" parent="JukfTVj9fwfsoRSbGSah-2" vertex="1">
                    &#xa;                    &#xa;                    &#xa;                    
                    <mxGeometry x="130" y="60" width="250" height="26" as="geometry"/>
                    &#xa;                    &#xa;                &#xa;                
                </mxCell>
                &#xa;                &#xa;                &#xa;                
                <mxCell id="JukfTVj9fwfsoRSbGSah-5" value="" style="rounded=0;whiteSpace=wrap;html=1;fontSize=16;" parent="JukfTVj9fwfsoRSbGSah-2" vertex="1">
                    &#xa;                    &#xa;                    &#xa;                    
                    <mxGeometry y="110" width="450" height="40" as="geometry"/>
                    &#xa;                    &#xa;                &#xa;                
                </mxCell>
                &#xa;                &#xa;                &#xa;                
                <mxCell id="JukfTVj9fwfsoRSbGSah-6" value="GitTix" style="text;html=1;strokeColor=none;fillColor=none;align=center;verticalAlign=middle;whiteSpace=wrap;rounded=0;fontSize=16;" parent="JukfTVj9fwfsoRSbGSah-2" vertex="1">
                    &#xa;                    &#xa;                    &#xa;                    
                    <mxGeometry x="20" y="120" width="40" height="20" as="geometry"/>
                    &#xa;                    &#xa;                &#xa;                
                </mxCell>
                &#xa;                &#xa;                &#xa;                
                <mxCell id="JukfTVj9fwfsoRSbGSah-7" value="Sign In" style="text;html=1;strokeColor=none;fillColor=none;align=center;verticalAlign=middle;whiteSpace=wrap;rounded=0;fontSize=16;" parent="JukfTVj9fwfsoRSbGSah-2" vertex="1">
                    &#xa;                    &#xa;                    &#xa;                    
                    <mxGeometry x="360" y="120" width="70" height="20" as="geometry"/>
                    &#xa;                    &#xa;                &#xa;                
                </mxCell>
                &#xa;                &#xa;                &#xa;                
                <mxCell id="JukfTVj9fwfsoRSbGSah-8" value="Sign Up" style="text;html=1;strokeColor=none;fillColor=none;align=center;verticalAlign=middle;whiteSpace=wrap;rounded=0;fontSize=16;" parent="JukfTVj9fwfsoRSbGSah-2" vertex="1">
                    &#xa;                    &#xa;                    &#xa;                    
                    <mxGeometry x="280" y="120" width="70" height="20" as="geometry"/>
                    &#xa;                    &#xa;                &#xa;                
                </mxCell>
                &#xa;                &#xa;                &#xa;                
                <mxCell id="JukfTVj9fwfsoRSbGSah-9" value="Tickets For Sale" style="text;html=1;strokeColor=none;fillColor=none;align=left;verticalAlign=middle;whiteSpace=wrap;rounded=0;fontSize=19;fontStyle=1" parent="JukfTVj9fwfsoRSbGSah-2" vertex="1">
                    &#xa;                    &#xa;                    &#xa;                    
                    <mxGeometry x="20" y="165" width="170" height="20" as="geometry"/>
                    &#xa;                    &#xa;                &#xa;                
                </mxCell>
                &#xa;                &#xa;                &#xa;                
                <mxCell id="JukfTVj9fwfsoRSbGSah-10" value="&lt;u&gt;Basketball Game - $20&lt;br&gt;&lt;/u&gt;&lt;br&gt;&lt;u&gt;Classical Concert - $100&lt;br&gt;&lt;/u&gt;&lt;br&gt;&lt;u&gt;Rock Concert - $100&lt;br&gt;&lt;/u&gt;&lt;br&gt;&lt;u&gt;Football Game - $40&lt;/u&gt;" style="text;html=1;strokeColor=none;fillColor=none;align=left;verticalAlign=middle;whiteSpace=wrap;rounded=0;fontSize=14;fontStyle=0" parent="JukfTVj9fwfsoRSbGSah-2" vertex="1">
                    &#xa;                    &#xa;                    &#xa;                    
                    <mxGeometry x="20" y="210" width="240" height="80" as="geometry"/>
                    &#xa;                    &#xa;                &#xa;                
                </mxCell>
                &#xa;                &#xa;                &#xa;                
                <mxCell id="JukfTVj9fwfsoRSbGSah-11" value="" style="strokeWidth=1;shadow=0;dashed=0;align=center;html=1;shape=mxgraph.mockup.containers.browserWindow;rSize=0;strokeColor=#666666;strokeColor2=#008cff;strokeColor3=#c4c4c4;mainText=,;recursiveResize=0;fontSize=16;" parent="JukfTVj9fwfsoRSbGSah-1" vertex="1">
                    &#xa;                    &#xa;                    &#xa;                    
                    <mxGeometry x="600" y="200" width="450" height="350" as="geometry"/>
                    &#xa;                    &#xa;                &#xa;                
                </mxCell>
                &#xa;                &#xa;                &#xa;                
                <mxCell id="JukfTVj9fwfsoRSbGSah-12" value="Page 1" style="strokeWidth=1;shadow=0;dashed=0;align=center;html=1;shape=mxgraph.mockup.containers.anchor;fontSize=17;fontColor=#666666;align=left;" parent="JukfTVj9fwfsoRSbGSah-11" vertex="1">
                    &#xa;                    &#xa;                    &#xa;                    
                    <mxGeometry x="60" y="12" width="110" height="26" as="geometry"/>
                    &#xa;                    &#xa;                &#xa;                
                </mxCell>
                &#xa;                &#xa;                &#xa;                
                <mxCell id="JukfTVj9fwfsoRSbGSah-13" value="https://www.draw.io" style="strokeWidth=1;shadow=0;dashed=0;align=center;html=1;shape=mxgraph.mockup.containers.anchor;rSize=0;fontSize=17;fontColor=#666666;align=left;" parent="JukfTVj9fwfsoRSbGSah-11" vertex="1">
                    &#xa;                    &#xa;                    &#xa;                    
                    <mxGeometry x="130" y="60" width="250" height="26" as="geometry"/>
                    &#xa;                    &#xa;                &#xa;                
                </mxCell>
                &#xa;                &#xa;                &#xa;                
                <mxCell id="JukfTVj9fwfsoRSbGSah-14" value="" style="rounded=0;whiteSpace=wrap;html=1;fontSize=16;" parent="JukfTVj9fwfsoRSbGSah-11" vertex="1">
                    &#xa;                    &#xa;                    &#xa;                    
                    <mxGeometry y="110" width="450" height="40" as="geometry"/>
                    &#xa;                    &#xa;                &#xa;                
                </mxCell>
                &#xa;                &#xa;                &#xa;                
                <mxCell id="JukfTVj9fwfsoRSbGSah-15" value="GitTix" style="text;html=1;strokeColor=none;fillColor=none;align=center;verticalAlign=middle;whiteSpace=wrap;rounded=0;fontSize=16;" parent="JukfTVj9fwfsoRSbGSah-11" vertex="1">
                    &#xa;                    &#xa;                    &#xa;                    
                    <mxGeometry x="20" y="120" width="40" height="20" as="geometry"/>
                    &#xa;                    &#xa;                &#xa;                
                </mxCell>
                &#xa;                &#xa;                &#xa;                
                <mxCell id="JukfTVj9fwfsoRSbGSah-16" value="Sign In" style="text;html=1;strokeColor=none;fillColor=none;align=center;verticalAlign=middle;whiteSpace=wrap;rounded=0;fontSize=16;" parent="JukfTVj9fwfsoRSbGSah-11" vertex="1">
                    &#xa;                    &#xa;                    &#xa;                    
                    <mxGeometry x="360" y="120" width="70" height="20" as="geometry"/>
                    &#xa;                    &#xa;                &#xa;                
                </mxCell>
                &#xa;                &#xa;                &#xa;                
                <mxCell id="JukfTVj9fwfsoRSbGSah-17" value="Sign Up" style="text;html=1;strokeColor=none;fillColor=none;align=center;verticalAlign=middle;whiteSpace=wrap;rounded=0;fontSize=16;" parent="JukfTVj9fwfsoRSbGSah-11" vertex="1">
                    &#xa;                    &#xa;                    &#xa;                    
                    <mxGeometry x="280" y="120" width="70" height="20" as="geometry"/>
                    &#xa;                    &#xa;                &#xa;                
                </mxCell>
                &#xa;                &#xa;                &#xa;                
                <mxCell id="JukfTVj9fwfsoRSbGSah-18" value="Email" style="text;html=1;strokeColor=none;fillColor=none;align=left;verticalAlign=middle;whiteSpace=wrap;rounded=0;fontSize=14;fontStyle=1" parent="JukfTVj9fwfsoRSbGSah-11" vertex="1">
                    &#xa;                    &#xa;                    &#xa;                    
                    <mxGeometry x="20" y="190" width="40" height="20" as="geometry"/>
                    &#xa;                    &#xa;                &#xa;                
                </mxCell>
                &#xa;                &#xa;                &#xa;                
                <mxCell id="JukfTVj9fwfsoRSbGSah-19" value="Password" style="text;html=1;strokeColor=none;fillColor=none;align=left;verticalAlign=middle;whiteSpace=wrap;rounded=0;fontSize=14;fontStyle=1" parent="JukfTVj9fwfsoRSbGSah-11" vertex="1">
                    &#xa;                    &#xa;                    &#xa;                    
                    <mxGeometry x="20" y="245" width="40" height="20" as="geometry"/>
                    &#xa;                    &#xa;                &#xa;                
                </mxCell>
                &#xa;                &#xa;                &#xa;                
                <mxCell id="JukfTVj9fwfsoRSbGSah-20" value="" style="rounded=0;whiteSpace=wrap;html=1;fontSize=14;align=left;" parent="JukfTVj9fwfsoRSbGSah-11" vertex="1">
                    &#xa;                    &#xa;                    &#xa;                    
                    <mxGeometry x="20" y="210" width="190" height="25" as="geometry"/>
                    &#xa;                    &#xa;                &#xa;                
                </mxCell>
                &#xa;                &#xa;                &#xa;                
                <mxCell id="JukfTVj9fwfsoRSbGSah-21" value="" style="rounded=0;whiteSpace=wrap;html=1;fontSize=14;align=left;" parent="JukfTVj9fwfsoRSbGSah-11" vertex="1">
                    &#xa;                    &#xa;                    &#xa;                    
                    <mxGeometry x="20" y="265" width="190" height="25" as="geometry"/>
                    &#xa;                    &#xa;                &#xa;                
                </mxCell>
                &#xa;                &#xa;                &#xa;                
                <mxCell id="JukfTVj9fwfsoRSbGSah-22" value="Sign Up" style="text;html=1;strokeColor=none;fillColor=none;align=left;verticalAlign=middle;whiteSpace=wrap;rounded=0;fontSize=19;fontStyle=1" parent="JukfTVj9fwfsoRSbGSah-11" vertex="1">
                    &#xa;                    &#xa;                    &#xa;                    
                    <mxGeometry x="20" y="155" width="170" height="35" as="geometry"/>
                    &#xa;                    &#xa;                &#xa;                
                </mxCell>
                &#xa;                &#xa;                &#xa;                
                <mxCell id="JukfTVj9fwfsoRSbGSah-23" value="Submit" style="rounded=1;whiteSpace=wrap;html=1;fontSize=14;align=center;fontStyle=1" parent="JukfTVj9fwfsoRSbGSah-11" vertex="1">
                    &#xa;                    &#xa;                    &#xa;                    
                    <mxGeometry x="20" y="300" width="90" height="30" as="geometry"/>
                    &#xa;                    &#xa;                &#xa;                
                </mxCell>
                &#xa;                &#xa;                &#xa;                
                <mxCell id="JukfTVj9fwfsoRSbGSah-24" value="" style="strokeWidth=1;shadow=0;dashed=0;align=center;html=1;shape=mxgraph.mockup.containers.browserWindow;rSize=0;strokeColor=#666666;strokeColor2=#008cff;strokeColor3=#c4c4c4;mainText=,;recursiveResize=0;fontSize=16;" parent="JukfTVj9fwfsoRSbGSah-1" vertex="1">
                    &#xa;                    &#xa;                    &#xa;                    
                    <mxGeometry x="1210" y="220" width="450" height="350" as="geometry"/>
                    &#xa;                    &#xa;                &#xa;                
                </mxCell>
                &#xa;                &#xa;                &#xa;                
                <mxCell id="JukfTVj9fwfsoRSbGSah-25" value="Page 1" style="strokeWidth=1;shadow=0;dashed=0;align=center;html=1;shape=mxgraph.mockup.containers.anchor;fontSize=17;fontColor=#666666;align=left;" parent="JukfTVj9fwfsoRSbGSah-24" vertex="1">
                    &#xa;                    &#xa;                    &#xa;                    
                    <mxGeometry x="60" y="12" width="110" height="26" as="geometry"/>
                    &#xa;                    &#xa;                &#xa;                
                </mxCell>
                &#xa;                &#xa;                &#xa;                
                <mxCell id="JukfTVj9fwfsoRSbGSah-26" value="https://www.draw.io" style="strokeWidth=1;shadow=0;dashed=0;align=center;html=1;shape=mxgraph.mockup.containers.anchor;rSize=0;fontSize=17;fontColor=#666666;align=left;" parent="JukfTVj9fwfsoRSbGSah-24" vertex="1">
                    &#xa;                    &#xa;                    &#xa;                    
                    <mxGeometry x="130" y="60" width="250" height="26" as="geometry"/>
                    &#xa;                    &#xa;                &#xa;                
                </mxCell>
                &#xa;                &#xa;                &#xa;                
                <mxCell id="JukfTVj9fwfsoRSbGSah-27" value="" style="rounded=0;whiteSpace=wrap;html=1;fontSize=16;" parent="JukfTVj9fwfsoRSbGSah-24" vertex="1">
                    &#xa;                    &#xa;                    &#xa;                    
                    <mxGeometry y="110" width="450" height="40" as="geometry"/>
                    &#xa;                    &#xa;                &#xa;                
                </mxCell>
                &#xa;                &#xa;                &#xa;                
                <mxCell id="JukfTVj9fwfsoRSbGSah-28" value="GitTix" style="text;html=1;strokeColor=none;fillColor=none;align=center;verticalAlign=middle;whiteSpace=wrap;rounded=0;fontSize=16;" parent="JukfTVj9fwfsoRSbGSah-24" vertex="1">
                    &#xa;                    &#xa;                    &#xa;                    
                    <mxGeometry x="20" y="120" width="40" height="20" as="geometry"/>
                    &#xa;                    &#xa;                &#xa;                
                </mxCell>
                &#xa;                &#xa;                &#xa;                
                <mxCell id="JukfTVj9fwfsoRSbGSah-29" value="Sign In" style="text;html=1;strokeColor=none;fillColor=none;align=center;verticalAlign=middle;whiteSpace=wrap;rounded=0;fontSize=16;" parent="JukfTVj9fwfsoRSbGSah-24" vertex="1">
                    &#xa;                    &#xa;                    &#xa;                    
                    <mxGeometry x="360" y="120" width="70" height="20" as="geometry"/>
                    &#xa;                    &#xa;                &#xa;                
                </mxCell>
                &#xa;                &#xa;                &#xa;                
                <mxCell id="JukfTVj9fwfsoRSbGSah-30" value="Sign Up" style="text;html=1;strokeColor=none;fillColor=none;align=center;verticalAlign=middle;whiteSpace=wrap;rounded=0;fontSize=16;" parent="JukfTVj9fwfsoRSbGSah-24" vertex="1">
                    &#xa;                    &#xa;                    &#xa;                    
                    <mxGeometry x="280" y="120" width="70" height="20" as="geometry"/>
                    &#xa;                    &#xa;                &#xa;                
                </mxCell>
                &#xa;                &#xa;                &#xa;                
                <mxCell id="JukfTVj9fwfsoRSbGSah-31" value="Email" style="text;html=1;strokeColor=none;fillColor=none;align=left;verticalAlign=middle;whiteSpace=wrap;rounded=0;fontSize=14;fontStyle=1" parent="JukfTVj9fwfsoRSbGSah-24" vertex="1">
                    &#xa;                    &#xa;                    &#xa;                    
                    <mxGeometry x="20" y="190" width="40" height="20" as="geometry"/>
                    &#xa;                    &#xa;                &#xa;                
                </mxCell>
                &#xa;                &#xa;                &#xa;                
                <mxCell id="JukfTVj9fwfsoRSbGSah-32" value="Password" style="text;html=1;strokeColor=none;fillColor=none;align=left;verticalAlign=middle;whiteSpace=wrap;rounded=0;fontSize=14;fontStyle=1" parent="JukfTVj9fwfsoRSbGSah-24" vertex="1">
                    &#xa;                    &#xa;                    &#xa;                    
                    <mxGeometry x="20" y="245" width="40" height="20" as="geometry"/>
                    &#xa;                    &#xa;                &#xa;                
                </mxCell>
                &#xa;                &#xa;                &#xa;                
                <mxCell id="JukfTVj9fwfsoRSbGSah-33" value="" style="rounded=0;whiteSpace=wrap;html=1;fontSize=14;align=left;" parent="JukfTVj9fwfsoRSbGSah-24" vertex="1">
                    &#xa;                    &#xa;                    &#xa;                    
                    <mxGeometry x="20" y="210" width="190" height="25" as="geometry"/>
                    &#xa;                    &#xa;                &#xa;                
                </mxCell>
                &#xa;                &#xa;                &#xa;                
                <mxCell id="JukfTVj9fwfsoRSbGSah-34" value="" style="rounded=0;whiteSpace=wrap;html=1;fontSize=14;align=left;" parent="JukfTVj9fwfsoRSbGSah-24" vertex="1">
                    &#xa;                    &#xa;                    &#xa;                    
                    <mxGeometry x="20" y="265" width="190" height="25" as="geometry"/>
                    &#xa;                    &#xa;                &#xa;                
                </mxCell>
                &#xa;                &#xa;                &#xa;                
                <mxCell id="JukfTVj9fwfsoRSbGSah-35" value="Sign In" style="text;html=1;strokeColor=none;fillColor=none;align=left;verticalAlign=middle;whiteSpace=wrap;rounded=0;fontSize=19;fontStyle=1" parent="JukfTVj9fwfsoRSbGSah-24" vertex="1">
                    &#xa;                    &#xa;                    &#xa;                    
                    <mxGeometry x="20" y="155" width="170" height="35" as="geometry"/>
                    &#xa;                    &#xa;                &#xa;                
                </mxCell>
                &#xa;                &#xa;                &#xa;                
                <mxCell id="JukfTVj9fwfsoRSbGSah-36" value="Submit" style="rounded=1;whiteSpace=wrap;html=1;fontSize=14;align=center;fontStyle=1" parent="JukfTVj9fwfsoRSbGSah-24" vertex="1">
                    &#xa;                    &#xa;                    &#xa;                    
                    <mxGeometry x="20" y="300" width="90" height="30" as="geometry"/>
                    &#xa;                    &#xa;                &#xa;                
                </mxCell>
                &#xa;                &#xa;                &#xa;                
                <mxCell id="JukfTVj9fwfsoRSbGSah-37" value="" style="strokeWidth=1;shadow=0;dashed=0;align=center;html=1;shape=mxgraph.mockup.containers.browserWindow;rSize=0;strokeColor=#666666;strokeColor2=#008cff;strokeColor3=#c4c4c4;mainText=,;recursiveResize=0;fontSize=16;" parent="JukfTVj9fwfsoRSbGSah-1" vertex="1">
                    &#xa;                    &#xa;                    &#xa;                    
                    <mxGeometry x="1680" y="220" width="450" height="350" as="geometry"/>
                    &#xa;                    &#xa;                &#xa;                
                </mxCell>
                &#xa;                &#xa;                &#xa;                
                <mxCell id="JukfTVj9fwfsoRSbGSah-38" value="Page 1" style="strokeWidth=1;shadow=0;dashed=0;align=center;html=1;shape=mxgraph.mockup.containers.anchor;fontSize=17;fontColor=#666666;align=left;" parent="JukfTVj9fwfsoRSbGSah-37" vertex="1">
                    &#xa;                    &#xa;                    &#xa;                    
                    <mxGeometry x="60" y="12" width="110" height="26" as="geometry"/>
                    &#xa;                    &#xa;                &#xa;                
                </mxCell>
                &#xa;                &#xa;                &#xa;                
                <mxCell id="JukfTVj9fwfsoRSbGSah-39" value="https://www.draw.io" style="strokeWidth=1;shadow=0;dashed=0;align=center;html=1;shape=mxgraph.mockup.containers.anchor;rSize=0;fontSize=17;fontColor=#666666;align=left;" parent="JukfTVj9fwfsoRSbGSah-37" vertex="1">
                    &#xa;                    &#xa;                    &#xa;                    
                    <mxGeometry x="130" y="60" width="250" height="26" as="geometry"/>
                    &#xa;                    &#xa;                &#xa;                
                </mxCell>
                &#xa;                &#xa;                &#xa;                
                <mxCell id="JukfTVj9fwfsoRSbGSah-40" value="" style="rounded=0;whiteSpace=wrap;html=1;fontSize=16;" parent="JukfTVj9fwfsoRSbGSah-37" vertex="1">
                    &#xa;                    &#xa;                    &#xa;                    
                    <mxGeometry y="110" width="450" height="40" as="geometry"/>
                    &#xa;                    &#xa;                &#xa;                
                </mxCell>
                &#xa;                &#xa;                &#xa;                
                <mxCell id="JukfTVj9fwfsoRSbGSah-41" value="GitTix" style="text;html=1;strokeColor=none;fillColor=none;align=center;verticalAlign=middle;whiteSpace=wrap;rounded=0;fontSize=16;" parent="JukfTVj9fwfsoRSbGSah-37" vertex="1">
                    &#xa;                    &#xa;                    &#xa;                    
                    <mxGeometry x="20" y="120" width="40" height="20" as="geometry"/>
                    &#xa;                    &#xa;                &#xa;                
                </mxCell>
                &#xa;                &#xa;                &#xa;                
                <mxCell id="JukfTVj9fwfsoRSbGSah-42" value="Sign Out" style="text;html=1;strokeColor=none;fillColor=none;align=center;verticalAlign=middle;whiteSpace=wrap;rounded=0;fontSize=16;" parent="JukfTVj9fwfsoRSbGSah-37" vertex="1">
                    &#xa;                    &#xa;                    &#xa;                    
                    <mxGeometry x="360" y="120" width="70" height="20" as="geometry"/>
                    &#xa;                    &#xa;                &#xa;                
                </mxCell>
                &#xa;                &#xa;                &#xa;                
                <mxCell id="JukfTVj9fwfsoRSbGSah-43" value="My Orders" style="text;html=1;strokeColor=none;fillColor=none;align=center;verticalAlign=middle;whiteSpace=wrap;rounded=0;fontSize=16;" parent="JukfTVj9fwfsoRSbGSah-37" vertex="1">
                    &#xa;                    &#xa;                    &#xa;                    
                    <mxGeometry x="170" y="120" width="110" height="20" as="geometry"/>
                    &#xa;                    &#xa;                &#xa;                
                </mxCell>
                &#xa;                &#xa;                &#xa;                
                <mxCell id="JukfTVj9fwfsoRSbGSah-44" value="Tickets For Sale" style="text;html=1;strokeColor=none;fillColor=none;align=left;verticalAlign=middle;whiteSpace=wrap;rounded=0;fontSize=19;fontStyle=1" parent="JukfTVj9fwfsoRSbGSah-37" vertex="1">
                    &#xa;                    &#xa;                    &#xa;                    
                    <mxGeometry x="20" y="165" width="170" height="20" as="geometry"/>
                    &#xa;                    &#xa;                &#xa;                
                </mxCell>
                &#xa;                &#xa;                &#xa;                
                <mxCell id="JukfTVj9fwfsoRSbGSah-45" value="&lt;u&gt;Basketball Game - $20&lt;br&gt;&lt;/u&gt;&lt;br&gt;&lt;u&gt;Classical Concert - $100&lt;br&gt;&lt;/u&gt;&lt;br&gt;&lt;u&gt;Rock Concert - $100&lt;br&gt;&lt;/u&gt;&lt;br&gt;&lt;u&gt;Football Game - $40&lt;/u&gt;" style="text;html=1;strokeColor=none;fillColor=none;align=left;verticalAlign=middle;whiteSpace=wrap;rounded=0;fontSize=14;fontStyle=0" parent="JukfTVj9fwfsoRSbGSah-37" vertex="1">
                    &#xa;                    &#xa;                    &#xa;                    
                    <mxGeometry x="20" y="210" width="240" height="80" as="geometry"/>
                    &#xa;                    &#xa;                &#xa;                
                </mxCell>
                &#xa;                &#xa;                &#xa;                
                <mxCell id="JukfTVj9fwfsoRSbGSah-46" value="Sell Tickets" style="text;html=1;strokeColor=none;fillColor=none;align=center;verticalAlign=middle;whiteSpace=wrap;rounded=0;fontSize=16;" parent="JukfTVj9fwfsoRSbGSah-37" vertex="1">
                    &#xa;                    &#xa;                    &#xa;                    
                    <mxGeometry x="260" y="120" width="110" height="20" as="geometry"/>
                    &#xa;                    &#xa;                &#xa;                
                </mxCell>
                &#xa;                &#xa;                &#xa;                
                <mxCell id="JukfTVj9fwfsoRSbGSah-47" value="" style="strokeWidth=1;shadow=0;dashed=0;align=center;html=1;shape=mxgraph.mockup.containers.browserWindow;rSize=0;strokeColor=#666666;strokeColor2=#008cff;strokeColor3=#c4c4c4;mainText=,;recursiveResize=0;fontSize=16;" parent="JukfTVj9fwfsoRSbGSah-1" vertex="1">
                    &#xa;                    &#xa;                    &#xa;                    
                    <mxGeometry x="2250" y="210" width="450" height="350" as="geometry"/>
                    &#xa;                    &#xa;                &#xa;                
                </mxCell>
                &#xa;                &#xa;                &#xa;                
                <mxCell id="JukfTVj9fwfsoRSbGSah-48" value="Page 1" style="strokeWidth=1;shadow=0;dashed=0;align=center;html=1;shape=mxgraph.mockup.containers.anchor;fontSize=17;fontColor=#666666;align=left;" parent="JukfTVj9fwfsoRSbGSah-47" vertex="1">
                    &#xa;                    &#xa;                    &#xa;                    
                    <mxGeometry x="60" y="12" width="110" height="26" as="geometry"/>
                    &#xa;                    &#xa;                &#xa;                
                </mxCell>
                &#xa;                &#xa;                &#xa;                
                <mxCell id="JukfTVj9fwfsoRSbGSah-49" value="https://www.draw.io" style="strokeWidth=1;shadow=0;dashed=0;align=center;html=1;shape=mxgraph.mockup.containers.anchor;rSize=0;fontSize=17;fontColor=#666666;align=left;" parent="JukfTVj9fwfsoRSbGSah-47" vertex="1">
                    &#xa;                    &#xa;                    &#xa;                    
                    <mxGeometry x="130" y="60" width="250" height="26" as="geometry"/>
                    &#xa;                    &#xa;                &#xa;                
                </mxCell>
                &#xa;                &#xa;                &#xa;                
                <mxCell id="JukfTVj9fwfsoRSbGSah-50" value="" style="rounded=0;whiteSpace=wrap;html=1;fontSize=16;" parent="JukfTVj9fwfsoRSbGSah-47" vertex="1">
                    &#xa;                    &#xa;                    &#xa;                    
                    <mxGeometry y="110" width="450" height="40" as="geometry"/>
                    &#xa;                    &#xa;                &#xa;                
                </mxCell>
                &#xa;                &#xa;                &#xa;                
                <mxCell id="JukfTVj9fwfsoRSbGSah-51" value="GitTix" style="text;html=1;strokeColor=none;fillColor=none;align=center;verticalAlign=middle;whiteSpace=wrap;rounded=0;fontSize=16;" parent="JukfTVj9fwfsoRSbGSah-47" vertex="1">
                    &#xa;                    &#xa;                    &#xa;                    
                    <mxGeometry x="20" y="120" width="40" height="20" as="geometry"/>
                    &#xa;                    &#xa;                &#xa;                
                </mxCell>
                &#xa;                &#xa;                &#xa;                
                <mxCell id="JukfTVj9fwfsoRSbGSah-52" value="Sign Out" style="text;html=1;strokeColor=none;fillColor=none;align=center;verticalAlign=middle;whiteSpace=wrap;rounded=0;fontSize=16;" parent="JukfTVj9fwfsoRSbGSah-47" vertex="1">
                    &#xa;                    &#xa;                    &#xa;                    
                    <mxGeometry x="360" y="120" width="70" height="20" as="geometry"/>
                    &#xa;                    &#xa;                &#xa;                
                </mxCell>
                &#xa;                &#xa;                &#xa;                
                <mxCell id="JukfTVj9fwfsoRSbGSah-53" value="My Orders" style="text;html=1;strokeColor=none;fillColor=none;align=center;verticalAlign=middle;whiteSpace=wrap;rounded=0;fontSize=16;" parent="JukfTVj9fwfsoRSbGSah-47" vertex="1">
                    &#xa;                    &#xa;                    &#xa;                    
                    <mxGeometry x="170" y="120" width="110" height="20" as="geometry"/>
                    &#xa;                    &#xa;                &#xa;                
                </mxCell>
                &#xa;                &#xa;                &#xa;                
                <mxCell id="JukfTVj9fwfsoRSbGSah-54" value="Rock Concert" style="text;html=1;strokeColor=none;fillColor=none;align=left;verticalAlign=middle;whiteSpace=wrap;rounded=0;fontSize=19;fontStyle=1" parent="JukfTVj9fwfsoRSbGSah-47" vertex="1">
                    &#xa;                    &#xa;                    &#xa;                    
                    <mxGeometry x="20" y="165" width="170" height="20" as="geometry"/>
                    &#xa;                    &#xa;                &#xa;                
                </mxCell>
                &#xa;                &#xa;                &#xa;                
                <mxCell id="JukfTVj9fwfsoRSbGSah-55" value="Price - $40&lt;br&gt;Status - Available&lt;br&gt;&lt;br&gt;" style="text;html=1;strokeColor=none;fillColor=none;align=left;verticalAlign=middle;whiteSpace=wrap;rounded=0;fontSize=14;fontStyle=0" parent="JukfTVj9fwfsoRSbGSah-47" vertex="1">
                    &#xa;                    &#xa;                    &#xa;                    
                    <mxGeometry x="20" y="180" width="240" height="80" as="geometry"/>
                    &#xa;                    &#xa;                &#xa;                
                </mxCell>
                &#xa;                &#xa;                &#xa;                
                <mxCell id="JukfTVj9fwfsoRSbGSah-56" value="Sell Tickets" style="text;html=1;strokeColor=none;fillColor=none;align=center;verticalAlign=middle;whiteSpace=wrap;rounded=0;fontSize=16;" parent="JukfTVj9fwfsoRSbGSah-47" vertex="1">
                    &#xa;                    &#xa;                    &#xa;                    
                    <mxGeometry x="260" y="120" width="110" height="20" as="geometry"/>
                    &#xa;                    &#xa;                &#xa;                
                </mxCell>
                &#xa;                &#xa;                &#xa;                
                <mxCell id="JukfTVj9fwfsoRSbGSah-57" value="Purchase" style="rounded=1;whiteSpace=wrap;html=1;fontSize=14;align=center;fontStyle=1" parent="JukfTVj9fwfsoRSbGSah-47" vertex="1">
                    &#xa;                    &#xa;                    &#xa;                    
                    <mxGeometry x="20" y="235" width="100" height="25" as="geometry"/>
                    &#xa;                    &#xa;                &#xa;                
                </mxCell>
                &#xa;                &#xa;                &#xa;                
                <mxCell id="JukfTVj9fwfsoRSbGSah-58" value="" style="strokeWidth=1;shadow=0;dashed=0;align=center;html=1;shape=mxgraph.mockup.containers.browserWindow;rSize=0;strokeColor=#666666;strokeColor2=#008cff;strokeColor3=#c4c4c4;mainText=,;recursiveResize=0;fontSize=16;" parent="JukfTVj9fwfsoRSbGSah-1" vertex="1">
                    &#xa;                    &#xa;                    &#xa;                    
                    <mxGeometry x="2730" y="210" width="450" height="350" as="geometry"/>
                    &#xa;                    &#xa;                &#xa;                
                </mxCell>
                &#xa;                &#xa;                &#xa;                
                <mxCell id="JukfTVj9fwfsoRSbGSah-59" value="Page 1" style="strokeWidth=1;shadow=0;dashed=0;align=center;html=1;shape=mxgraph.mockup.containers.anchor;fontSize=17;fontColor=#666666;align=left;" parent="JukfTVj9fwfsoRSbGSah-58" vertex="1">
                    &#xa;                    &#xa;                    &#xa;                    
                    <mxGeometry x="60" y="12" width="110" height="26" as="geometry"/>
                    &#xa;                    &#xa;                &#xa;                
                </mxCell>
                &#xa;                &#xa;                &#xa;                
                <mxCell id="JukfTVj9fwfsoRSbGSah-60" value="https://www.draw.io" style="strokeWidth=1;shadow=0;dashed=0;align=center;html=1;shape=mxgraph.mockup.containers.anchor;rSize=0;fontSize=17;fontColor=#666666;align=left;" parent="JukfTVj9fwfsoRSbGSah-58" vertex="1">
                    &#xa;                    &#xa;                    &#xa;                    
                    <mxGeometry x="130" y="60" width="250" height="26" as="geometry"/>
                    &#xa;                    &#xa;                &#xa;                
                </mxCell>
                &#xa;                &#xa;                &#xa;                
                <mxCell id="JukfTVj9fwfsoRSbGSah-61" value="" style="rounded=0;whiteSpace=wrap;html=1;fontSize=16;" parent="JukfTVj9fwfsoRSbGSah-58" vertex="1">
                    &#xa;                    &#xa;                    &#xa;                    
                    <mxGeometry y="110" width="450" height="40" as="geometry"/>
                    &#xa;                    &#xa;                &#xa;                
                </mxCell>
                &#xa;                &#xa;                &#xa;                
                <mxCell id="JukfTVj9fwfsoRSbGSah-62" value="GitTix" style="text;html=1;strokeColor=none;fillColor=none;align=center;verticalAlign=middle;whiteSpace=wrap;rounded=0;fontSize=16;" parent="JukfTVj9fwfsoRSbGSah-58" vertex="1">
                    &#xa;                    &#xa;                    &#xa;                    
                    <mxGeometry x="20" y="120" width="40" height="20" as="geometry"/>
                    &#xa;                    &#xa;                &#xa;                
                </mxCell>
                &#xa;                &#xa;                &#xa;                
                <mxCell id="JukfTVj9fwfsoRSbGSah-63" value="Sign Out" style="text;html=1;strokeColor=none;fillColor=none;align=center;verticalAlign=middle;whiteSpace=wrap;rounded=0;fontSize=16;" parent="JukfTVj9fwfsoRSbGSah-58" vertex="1">
                    &#xa;                    &#xa;                    &#xa;                    
                    <mxGeometry x="360" y="120" width="70" height="20" as="geometry"/>
                    &#xa;                    &#xa;                &#xa;                
                </mxCell>
                &#xa;                &#xa;                &#xa;                
                <mxCell id="JukfTVj9fwfsoRSbGSah-64" value="My Orders" style="text;html=1;strokeColor=none;fillColor=none;align=center;verticalAlign=middle;whiteSpace=wrap;rounded=0;fontSize=16;" parent="JukfTVj9fwfsoRSbGSah-58" vertex="1">
                    &#xa;                    &#xa;                    &#xa;                    
                    <mxGeometry x="170" y="120" width="110" height="20" as="geometry"/>
                    &#xa;                    &#xa;                &#xa;                
                </mxCell>
                &#xa;                &#xa;                &#xa;                
                <mxCell id="JukfTVj9fwfsoRSbGSah-65" value="Purchasing Rock Concert" style="text;html=1;strokeColor=none;fillColor=none;align=left;verticalAlign=middle;whiteSpace=wrap;rounded=0;fontSize=19;fontStyle=1" parent="JukfTVj9fwfsoRSbGSah-58" vertex="1">
                    &#xa;                    &#xa;                    &#xa;                    
                    <mxGeometry x="20" y="165" width="290" height="20" as="geometry"/>
                    &#xa;                    &#xa;                &#xa;                
                </mxCell>
                &#xa;                &#xa;                &#xa;                
                <mxCell id="JukfTVj9fwfsoRSbGSah-66" value="Sell Tickets" style="text;html=1;strokeColor=none;fillColor=none;align=center;verticalAlign=middle;whiteSpace=wrap;rounded=0;fontSize=16;" parent="JukfTVj9fwfsoRSbGSah-58" vertex="1">
                    &#xa;                    &#xa;                    &#xa;                    
                    <mxGeometry x="260" y="120" width="110" height="20" as="geometry"/>
                    &#xa;                    &#xa;                &#xa;                
                </mxCell>
                &#xa;                &#xa;                &#xa;                
                <mxCell id="JukfTVj9fwfsoRSbGSah-67" value="Pay" style="rounded=1;whiteSpace=wrap;html=1;fontSize=14;align=center;fontStyle=1" parent="JukfTVj9fwfsoRSbGSah-58" vertex="1">
                    &#xa;                    &#xa;                    &#xa;                    
                    <mxGeometry x="20" y="235" width="100" height="25" as="geometry"/>
                    &#xa;                    &#xa;                &#xa;                
                </mxCell>
                &#xa;                &#xa;                &#xa;                
                <mxCell id="JukfTVj9fwfsoRSbGSah-68" value="You have 30 seconds left to order" style="text;html=1;strokeColor=none;fillColor=none;align=left;verticalAlign=middle;whiteSpace=wrap;rounded=0;fontSize=14;" parent="JukfTVj9fwfsoRSbGSah-58" vertex="1">
                    &#xa;                    &#xa;                    &#xa;                    
                    <mxGeometry x="20" y="200" width="260" height="20" as="geometry"/>
                    &#xa;                    &#xa;                &#xa;                
                </mxCell>
                &#xa;                &#xa;                &#xa;                
                <mxCell id="JukfTVj9fwfsoRSbGSah-69" value="" style="strokeWidth=1;shadow=0;dashed=0;align=center;html=1;shape=mxgraph.mockup.containers.browserWindow;rSize=0;strokeColor=#666666;strokeColor2=#008cff;strokeColor3=#c4c4c4;mainText=,;recursiveResize=0;fontSize=16;" parent="JukfTVj9fwfsoRSbGSah-1" vertex="1">
                    &#xa;                    &#xa;                    &#xa;                    
                    <mxGeometry x="3380" y="210" width="450" height="350" as="geometry"/>
                    &#xa;                    &#xa;                &#xa;                
                </mxCell>
                &#xa;                &#xa;                &#xa;                
                <mxCell id="JukfTVj9fwfsoRSbGSah-70" value="Page 1" style="strokeWidth=1;shadow=0;dashed=0;align=center;html=1;shape=mxgraph.mockup.containers.anchor;fontSize=17;fontColor=#666666;align=left;" parent="JukfTVj9fwfsoRSbGSah-69" vertex="1">
                    &#xa;                    &#xa;                    &#xa;                    
                    <mxGeometry x="60" y="12" width="110" height="26" as="geometry"/>
                    &#xa;                    &#xa;                &#xa;                
                </mxCell>
                &#xa;                &#xa;                &#xa;                
                <mxCell id="JukfTVj9fwfsoRSbGSah-71" value="https://www.draw.io" style="strokeWidth=1;shadow=0;dashed=0;align=center;html=1;shape=mxgraph.mockup.containers.anchor;rSize=0;fontSize=17;fontColor=#666666;align=left;" parent="JukfTVj9fwfsoRSbGSah-69" vertex="1">
                    &#xa;                    &#xa;                    &#xa;                    
                    <mxGeometry x="130" y="60" width="250" height="26" as="geometry"/>
                    &#xa;                    &#xa;                &#xa;                
                </mxCell>
                &#xa;                &#xa;                &#xa;                
                <mxCell id="JukfTVj9fwfsoRSbGSah-72" value="" style="rounded=0;whiteSpace=wrap;html=1;fontSize=16;" parent="JukfTVj9fwfsoRSbGSah-69" vertex="1">
                    &#xa;                    &#xa;                    &#xa;                    
                    <mxGeometry y="110" width="450" height="40" as="geometry"/>
                    &#xa;                    &#xa;                &#xa;                
                </mxCell>
                &#xa;                &#xa;                &#xa;                
                <mxCell id="JukfTVj9fwfsoRSbGSah-73" value="GitTix" style="text;html=1;strokeColor=none;fillColor=none;align=center;verticalAlign=middle;whiteSpace=wrap;rounded=0;fontSize=16;" parent="JukfTVj9fwfsoRSbGSah-69" vertex="1">
                    &#xa;                    &#xa;                    &#xa;                    
                    <mxGeometry x="20" y="120" width="40" height="20" as="geometry"/>
                    &#xa;                    &#xa;                &#xa;                
                </mxCell>
                &#xa;                &#xa;                &#xa;                
                <mxCell id="JukfTVj9fwfsoRSbGSah-74" value="Sign Out" style="text;html=1;strokeColor=none;fillColor=none;align=center;verticalAlign=middle;whiteSpace=wrap;rounded=0;fontSize=16;" parent="JukfTVj9fwfsoRSbGSah-69" vertex="1">
                    &#xa;                    &#xa;                    &#xa;                    
                    <mxGeometry x="360" y="120" width="70" height="20" as="geometry"/>
                    &#xa;                    &#xa;                &#xa;                
                </mxCell>
                &#xa;                &#xa;                &#xa;                
                <mxCell id="JukfTVj9fwfsoRSbGSah-75" value="My Orders" style="text;html=1;strokeColor=none;fillColor=none;align=center;verticalAlign=middle;whiteSpace=wrap;rounded=0;fontSize=16;" parent="JukfTVj9fwfsoRSbGSah-69" vertex="1">
                    &#xa;                    &#xa;                    &#xa;                    
                    <mxGeometry x="170" y="120" width="110" height="20" as="geometry"/>
                    &#xa;                    &#xa;                &#xa;                
                </mxCell>
                &#xa;                &#xa;                &#xa;                
                <mxCell id="JukfTVj9fwfsoRSbGSah-76" value="Purchasing Rock Concert" style="text;html=1;strokeColor=none;fillColor=none;align=left;verticalAlign=middle;whiteSpace=wrap;rounded=0;fontSize=19;fontStyle=1" parent="JukfTVj9fwfsoRSbGSah-69" vertex="1">
                    &#xa;                    &#xa;                    &#xa;                    
                    <mxGeometry x="20" y="165" width="290" height="20" as="geometry"/>
                    &#xa;                    &#xa;                &#xa;                
                </mxCell>
                &#xa;                &#xa;                &#xa;                
                <mxCell id="JukfTVj9fwfsoRSbGSah-77" value="Sell Tickets" style="text;html=1;strokeColor=none;fillColor=none;align=center;verticalAlign=middle;whiteSpace=wrap;rounded=0;fontSize=16;" parent="JukfTVj9fwfsoRSbGSah-69" vertex="1">
                    &#xa;                    &#xa;                    &#xa;                    
                    <mxGeometry x="260" y="120" width="110" height="20" as="geometry"/>
                    &#xa;                    &#xa;                &#xa;                
                </mxCell>
                &#xa;                &#xa;                &#xa;                
                <mxCell id="JukfTVj9fwfsoRSbGSah-78" value="Pay" style="rounded=1;whiteSpace=wrap;html=1;fontSize=14;align=center;fontStyle=1" parent="JukfTVj9fwfsoRSbGSah-69" vertex="1">
                    &#xa;                    &#xa;                    &#xa;                    
                    <mxGeometry x="20" y="235" width="100" height="25" as="geometry"/>
                    &#xa;                    &#xa;                &#xa;                
                </mxCell>
                &#xa;                &#xa;                &#xa;                
                <mxCell id="JukfTVj9fwfsoRSbGSah-79" value="You have 30 seconds left to order" style="text;html=1;strokeColor=none;fillColor=none;align=left;verticalAlign=middle;whiteSpace=wrap;rounded=0;fontSize=14;" parent="JukfTVj9fwfsoRSbGSah-69" vertex="1">
                    &#xa;                    &#xa;                    &#xa;                    
                    <mxGeometry x="20" y="200" width="260" height="20" as="geometry"/>
                    &#xa;                    &#xa;                &#xa;                
                </mxCell>
                &#xa;                &#xa;                &#xa;                
                <mxCell id="JukfTVj9fwfsoRSbGSah-80" value="" style="rounded=0;whiteSpace=wrap;html=1;fontSize=14;align=left;fillColor=#f5f5f5;strokeColor=#666666;fontColor=#333333;opacity=80;" parent="JukfTVj9fwfsoRSbGSah-69" vertex="1">
                    &#xa;                    &#xa;                    &#xa;                    
                    <mxGeometry y="110" width="450" height="240" as="geometry"/>
                    &#xa;                    &#xa;                &#xa;                
                </mxCell>
                &#xa;                &#xa;                &#xa;                
                <mxCell id="JukfTVj9fwfsoRSbGSah-81" value="" style="rounded=0;whiteSpace=wrap;html=1;fontSize=14;align=left;" parent="JukfTVj9fwfsoRSbGSah-69" vertex="1">
                    &#xa;                    &#xa;                    &#xa;                    
                    <mxGeometry x="140" y="165" width="170" height="135" as="geometry"/>
                    &#xa;                    &#xa;                &#xa;                
                </mxCell>
                &#xa;                &#xa;                &#xa;                
                <mxCell id="JukfTVj9fwfsoRSbGSah-82" value="Credit Card" style="text;html=1;strokeColor=none;fillColor=none;align=left;verticalAlign=middle;whiteSpace=wrap;rounded=0;fontSize=14;fontStyle=1" parent="JukfTVj9fwfsoRSbGSah-69" vertex="1">
                    &#xa;                    &#xa;                    &#xa;                    
                    <mxGeometry x="150" y="170" width="120" height="20" as="geometry"/>
                    &#xa;                    &#xa;                &#xa;                
                </mxCell>
                &#xa;                &#xa;                &#xa;                
                <mxCell id="JukfTVj9fwfsoRSbGSah-83" value="" style="rounded=0;whiteSpace=wrap;html=1;fontSize=14;align=left;" parent="JukfTVj9fwfsoRSbGSah-69" vertex="1">
                    &#xa;                    &#xa;                    &#xa;                    
                    <mxGeometry x="150" y="193" width="150" height="17" as="geometry"/>
                    &#xa;                    &#xa;                &#xa;                
                </mxCell>
                &#xa;                &#xa;                &#xa;                
                <mxCell id="JukfTVj9fwfsoRSbGSah-84" value="Expiration" style="text;html=1;strokeColor=none;fillColor=none;align=left;verticalAlign=middle;whiteSpace=wrap;rounded=0;fontSize=14;fontStyle=1" parent="JukfTVj9fwfsoRSbGSah-69" vertex="1">
                    &#xa;                    &#xa;                    &#xa;                    
                    <mxGeometry x="150" y="215" width="120" height="20" as="geometry"/>
                    &#xa;                    &#xa;                &#xa;                
                </mxCell>
                &#xa;                &#xa;                &#xa;                
                <mxCell id="JukfTVj9fwfsoRSbGSah-85" value="" style="rounded=0;whiteSpace=wrap;html=1;fontSize=14;align=left;" parent="JukfTVj9fwfsoRSbGSah-69" vertex="1">
                    &#xa;                    &#xa;                    &#xa;                    
                    <mxGeometry x="150" y="235" width="150" height="17" as="geometry"/>
                    &#xa;                    &#xa;                &#xa;                
                </mxCell>
                &#xa;                &#xa;                &#xa;                
                <mxCell id="JukfTVj9fwfsoRSbGSah-86" value="Submit" style="rounded=1;whiteSpace=wrap;html=1;fontSize=14;align=center;fontStyle=1" parent="JukfTVj9fwfsoRSbGSah-69" vertex="1">
                    &#xa;                    &#xa;                    &#xa;                    
                    <mxGeometry x="175" y="266" width="100" height="25" as="geometry"/>
                    &#xa;                    &#xa;                &#xa;                
                </mxCell>
                &#xa;                &#xa;            &#xa;            
            </root>
            &#xa;            &#xa;        &#xa;        
        </mxGraphModel>
        &#xa;        &#xa;    &#xa;    
    </diagram>
    <diagram name="auth-client-react" id="C3CFKEIQKBWrc-IigDk4">
        &#xa;        &#xa;        &#xa;        
        <mxGraphModel dx="1532" dy="302" grid="1" gridSize="10" guides="1" tooltips="1" connect="1" arrows="1" fold="1" page="1" pageScale="1" pageWidth="1100" pageHeight="850" math="0" shadow="0">
            &#xa;            &#xa;            &#xa;            
            <root>
                &#xa;                &#xa;                &#xa;                
                <mxCell id="JrkNQLbtwPTF9lLLHas6-0"/>
                &#xa;                &#xa;                &#xa;                
                <mxCell id="JrkNQLbtwPTF9lLLHas6-1" parent="JrkNQLbtwPTF9lLLHas6-0"/>
                &#xa;                &#xa;                &#xa;                
                <mxCell id="7aCm1oqQeqmt2lZ8XXNu-0" value="" style="group;movable=0;resizable=0;rotatable=0;deletable=0;editable=0;connectable=0;" parent="JrkNQLbtwPTF9lLLHas6-1" vertex="1" connectable="0">
                    &#xa;                    &#xa;                    &#xa;                    
                    <mxGeometry x="10" y="860" width="1070" height="810" as="geometry"/>
                    &#xa;                    &#xa;                &#xa;                
                </mxCell>
                &#xa;                &#xa;                &#xa;                
                <mxCell id="JrkNQLbtwPTF9lLLHas6-23" value="" style="strokeWidth=1;shadow=0;dashed=0;align=center;html=1;shape=mxgraph.mockup.containers.browserWindow;rSize=0;strokeColor=#666666;strokeColor2=#008cff;strokeColor3=#c4c4c4;mainText=,;recursiveResize=0;fontSize=16;movable=0;resizable=0;rotatable=0;deletable=0;editable=0;connectable=0;" parent="7aCm1oqQeqmt2lZ8XXNu-0" vertex="1">
                    &#xa;                    &#xa;                    &#xa;                    
                    <mxGeometry x="266.05405405405406" y="373.8461538461539" width="260.2702702702702" height="436.15384615384625" as="geometry"/>
                    &#xa;                    &#xa;                &#xa;                
                </mxCell>
                &#xa;                &#xa;                &#xa;                
                <mxCell id="JrkNQLbtwPTF9lLLHas6-24" value="Page 1" style="strokeWidth=1;shadow=0;dashed=0;align=center;html=1;shape=mxgraph.mockup.containers.anchor;fontSize=17;fontColor=#666666;align=left;movable=0;resizable=0;rotatable=0;deletable=0;editable=0;connectable=0;" parent="JrkNQLbtwPTF9lLLHas6-23" vertex="1">
                    &#xa;                    &#xa;                    &#xa;                    
                    <mxGeometry x="34.7027027027027" y="14.953846153846156" width="63.62162162162162" height="32.40000000000001" as="geometry"/>
                    &#xa;                    &#xa;                &#xa;                
                </mxCell>
                &#xa;                &#xa;                &#xa;                
                <mxCell id="JrkNQLbtwPTF9lLLHas6-25" value="" style="strokeWidth=1;shadow=0;dashed=0;align=center;html=1;shape=mxgraph.mockup.containers.anchor;rSize=0;fontSize=17;fontColor=#666666;align=left;movable=0;resizable=0;rotatable=0;deletable=0;editable=0;connectable=0;" parent="JrkNQLbtwPTF9lLLHas6-23" vertex="1">
                    &#xa;                    &#xa;                    &#xa;                    
                    <mxGeometry x="75.18918918918918" y="74.76923076923079" width="144.59459459459458" height="32.40000000000001" as="geometry"/>
                    &#xa;                    &#xa;                &#xa;                
                </mxCell>
                &#xa;                &#xa;                &#xa;                
                <mxCell id="JrkNQLbtwPTF9lLLHas6-26" value="" style="rounded=0;whiteSpace=wrap;html=1;fontSize=16;movable=0;resizable=0;rotatable=0;deletable=0;editable=0;connectable=0;" parent="JrkNQLbtwPTF9lLLHas6-23" vertex="1">
                    &#xa;                    &#xa;                    &#xa;                    
                    <mxGeometry y="137.0769230769231" width="260.2702702702702" height="49.84615384615387" as="geometry"/>
                    &#xa;                    &#xa;                &#xa;                
                </mxCell>
                &#xa;                &#xa;                &#xa;                
                <mxCell id="JrkNQLbtwPTF9lLLHas6-27" value="GitTix" style="text;html=1;strokeColor=none;fillColor=none;align=center;verticalAlign=middle;whiteSpace=wrap;rounded=0;fontSize=16;movable=0;resizable=0;rotatable=0;deletable=0;editable=0;connectable=0;" parent="JrkNQLbtwPTF9lLLHas6-23" vertex="1">
                    &#xa;                    &#xa;                    &#xa;                    
                    <mxGeometry x="11.567567567567567" y="149.53846153846158" width="23.135135135135133" height="24.923076923076934" as="geometry"/>
                    &#xa;                    &#xa;                &#xa;                
                </mxCell>
                &#xa;                &#xa;                &#xa;                
                <mxCell id="JrkNQLbtwPTF9lLLHas6-28" value="Sign In" style="text;html=1;strokeColor=none;fillColor=none;align=center;verticalAlign=middle;whiteSpace=wrap;rounded=0;fontSize=16;movable=0;resizable=0;rotatable=0;deletable=0;editable=0;connectable=0;" parent="JrkNQLbtwPTF9lLLHas6-23" vertex="1">
                    &#xa;                    &#xa;                    &#xa;                    
                    <mxGeometry x="208.21621621621617" y="149.53846153846158" width="40.486486486486484" height="24.923076923076934" as="geometry"/>
                    &#xa;                    &#xa;                &#xa;                
                </mxCell>
                &#xa;                &#xa;                &#xa;                
                <mxCell id="JrkNQLbtwPTF9lLLHas6-29" value="Sign Up" style="text;html=1;strokeColor=none;fillColor=none;align=center;verticalAlign=middle;whiteSpace=wrap;rounded=0;fontSize=16;movable=0;resizable=0;rotatable=0;deletable=0;editable=0;connectable=0;" parent="JrkNQLbtwPTF9lLLHas6-23" vertex="1">
                    &#xa;                    &#xa;                    &#xa;                    
                    <mxGeometry x="161.94594594594594" y="149.53846153846158" width="40.486486486486484" height="24.923076923076934" as="geometry"/>
                    &#xa;                    &#xa;                &#xa;                
                </mxCell>
                &#xa;                &#xa;                &#xa;                
                <mxCell id="JrkNQLbtwPTF9lLLHas6-30" value="Email" style="text;html=1;strokeColor=none;fillColor=none;align=left;verticalAlign=middle;whiteSpace=wrap;rounded=0;fontSize=14;fontStyle=1;movable=0;resizable=0;rotatable=0;deletable=0;editable=0;connectable=0;" parent="JrkNQLbtwPTF9lLLHas6-23" vertex="1">
                    &#xa;                    &#xa;                    &#xa;                    
                    <mxGeometry x="11.567567567567567" y="236.76923076923086" width="23.135135135135133" height="24.923076923076934" as="geometry"/>
                    &#xa;                    &#xa;                &#xa;                
                </mxCell>
                &#xa;                &#xa;                &#xa;                
                <mxCell id="JrkNQLbtwPTF9lLLHas6-31" value="Password" style="text;html=1;strokeColor=none;fillColor=none;align=left;verticalAlign=middle;whiteSpace=wrap;rounded=0;fontSize=14;fontStyle=1;movable=0;resizable=0;rotatable=0;deletable=0;editable=0;connectable=0;" parent="JrkNQLbtwPTF9lLLHas6-23" vertex="1">
                    &#xa;                    &#xa;                    &#xa;                    
                    <mxGeometry x="11.567567567567567" y="305.3076923076923" width="23.135135135135133" height="24.923076923076934" as="geometry"/>
                    &#xa;                    &#xa;                &#xa;                
                </mxCell>
                &#xa;                &#xa;                &#xa;                
                <mxCell id="JrkNQLbtwPTF9lLLHas6-32" value="" style="rounded=0;whiteSpace=wrap;html=1;fontSize=14;align=left;movable=0;resizable=0;rotatable=0;deletable=0;editable=0;connectable=0;" parent="JrkNQLbtwPTF9lLLHas6-23" vertex="1">
                    &#xa;                    &#xa;                    &#xa;                    
                    <mxGeometry x="11.567567567567567" y="261.6923076923078" width="109.89189189189189" height="31.15384615384616" as="geometry"/>
                    &#xa;                    &#xa;                &#xa;                
                </mxCell>
                &#xa;                &#xa;                &#xa;                
                <mxCell id="JrkNQLbtwPTF9lLLHas6-33" value="" style="rounded=0;whiteSpace=wrap;html=1;fontSize=14;align=left;movable=0;resizable=0;rotatable=0;deletable=0;editable=0;connectable=0;" parent="JrkNQLbtwPTF9lLLHas6-23" vertex="1">
                    &#xa;                    &#xa;                    &#xa;                    
                    <mxGeometry x="11.567567567567567" y="330.23076923076934" width="109.89189189189189" height="31.15384615384616" as="geometry"/>
                    &#xa;                    &#xa;                &#xa;                
                </mxCell>
                &#xa;                &#xa;                &#xa;                
                <mxCell id="JrkNQLbtwPTF9lLLHas6-34" value="Sign Up" style="text;html=1;strokeColor=none;fillColor=none;align=left;verticalAlign=middle;whiteSpace=wrap;rounded=0;fontSize=19;fontStyle=1;movable=0;resizable=0;rotatable=0;deletable=0;editable=0;connectable=0;" parent="JrkNQLbtwPTF9lLLHas6-23" vertex="1">
                    &#xa;                    &#xa;                    &#xa;                    
                    <mxGeometry x="11.567567567567567" y="193.15384615384622" width="98.32432432432432" height="43.615384615384635" as="geometry"/>
                    &#xa;                    &#xa;                &#xa;                
                </mxCell>
                &#xa;                &#xa;                &#xa;                
                <mxCell id="JrkNQLbtwPTF9lLLHas6-35" value="Submit" style="rounded=1;whiteSpace=wrap;html=1;fontSize=14;align=center;fontStyle=1;movable=0;resizable=0;rotatable=0;deletable=0;editable=0;connectable=0;" parent="JrkNQLbtwPTF9lLLHas6-23" vertex="1">
                    &#xa;                    &#xa;                    &#xa;                    
                    <mxGeometry x="11.567567567567567" y="373.8461538461539" width="52.05405405405404" height="37.384615384615394" as="geometry"/>
                    &#xa;                    &#xa;                &#xa;                
                </mxCell>
                &#xa;                &#xa;                &#xa;                
                <mxCell id="JrkNQLbtwPTF9lLLHas6-36" value="" style="strokeWidth=1;shadow=0;dashed=0;align=center;html=1;shape=mxgraph.mockup.containers.browserWindow;rSize=0;strokeColor=#666666;strokeColor2=#008cff;strokeColor3=#c4c4c4;mainText=,;recursiveResize=0;fontSize=16;movable=0;resizable=0;rotatable=0;deletable=0;editable=0;connectable=0;" parent="7aCm1oqQeqmt2lZ8XXNu-0" vertex="1">
                    &#xa;                    &#xa;                    &#xa;                    
                    <mxGeometry x="537.8918918918919" y="373.8461538461539" width="260.2702702702702" height="436.15384615384625" as="geometry"/>
                    &#xa;                    &#xa;                &#xa;                
                </mxCell>
                &#xa;                &#xa;                &#xa;                
                <mxCell id="JrkNQLbtwPTF9lLLHas6-37" value="Page 1" style="strokeWidth=1;shadow=0;dashed=0;align=center;html=1;shape=mxgraph.mockup.containers.anchor;fontSize=17;fontColor=#666666;align=left;movable=0;resizable=0;rotatable=0;deletable=0;editable=0;connectable=0;" parent="JrkNQLbtwPTF9lLLHas6-36" vertex="1">
                    &#xa;                    &#xa;                    &#xa;                    
                    <mxGeometry x="34.7027027027027" y="14.953846153846156" width="63.62162162162162" height="32.40000000000001" as="geometry"/>
                    &#xa;                    &#xa;                &#xa;                
                </mxCell>
                &#xa;                &#xa;                &#xa;                
                <mxCell id="JrkNQLbtwPTF9lLLHas6-38" value="" style="strokeWidth=1;shadow=0;dashed=0;align=center;html=1;shape=mxgraph.mockup.containers.anchor;rSize=0;fontSize=17;fontColor=#666666;align=left;movable=0;resizable=0;rotatable=0;deletable=0;editable=0;connectable=0;" parent="JrkNQLbtwPTF9lLLHas6-36" vertex="1">
                    &#xa;                    &#xa;                    &#xa;                    
                    <mxGeometry x="75.18918918918918" y="74.76923076923079" width="144.59459459459458" height="32.40000000000001" as="geometry"/>
                    &#xa;                    &#xa;                &#xa;                
                </mxCell>
                &#xa;                &#xa;                &#xa;                
                <mxCell id="JrkNQLbtwPTF9lLLHas6-39" value="" style="rounded=0;whiteSpace=wrap;html=1;fontSize=16;movable=0;resizable=0;rotatable=0;deletable=0;editable=0;connectable=0;" parent="JrkNQLbtwPTF9lLLHas6-36" vertex="1">
                    &#xa;                    &#xa;                    &#xa;                    
                    <mxGeometry y="137.0769230769231" width="260.2702702702702" height="49.84615384615387" as="geometry"/>
                    &#xa;                    &#xa;                &#xa;                
                </mxCell>
                &#xa;                &#xa;                &#xa;                
                <mxCell id="JrkNQLbtwPTF9lLLHas6-40" value="GitTix" style="text;html=1;strokeColor=none;fillColor=none;align=center;verticalAlign=middle;whiteSpace=wrap;rounded=0;fontSize=16;movable=0;resizable=0;rotatable=0;deletable=0;editable=0;connectable=0;" parent="JrkNQLbtwPTF9lLLHas6-36" vertex="1">
                    &#xa;                    &#xa;                    &#xa;                    
                    <mxGeometry x="11.567567567567567" y="149.53846153846158" width="23.135135135135133" height="24.923076923076934" as="geometry"/>
                    &#xa;                    &#xa;                &#xa;                
                </mxCell>
                &#xa;                &#xa;                &#xa;                
                <mxCell id="JrkNQLbtwPTF9lLLHas6-41" value="Sign In" style="text;html=1;strokeColor=none;fillColor=none;align=center;verticalAlign=middle;whiteSpace=wrap;rounded=0;fontSize=16;movable=0;resizable=0;rotatable=0;deletable=0;editable=0;connectable=0;" parent="JrkNQLbtwPTF9lLLHas6-36" vertex="1">
                    &#xa;                    &#xa;                    &#xa;                    
                    <mxGeometry x="208.21621621621617" y="149.53846153846158" width="40.486486486486484" height="24.923076923076934" as="geometry"/>
                    &#xa;                    &#xa;                &#xa;                
                </mxCell>
                &#xa;                &#xa;                &#xa;                
                <mxCell id="JrkNQLbtwPTF9lLLHas6-42" value="Sign Up" style="text;html=1;strokeColor=none;fillColor=none;align=center;verticalAlign=middle;whiteSpace=wrap;rounded=0;fontSize=16;movable=0;resizable=0;rotatable=0;deletable=0;editable=0;connectable=0;" parent="JrkNQLbtwPTF9lLLHas6-36" vertex="1">
                    &#xa;                    &#xa;                    &#xa;                    
                    <mxGeometry x="161.94594594594594" y="149.53846153846158" width="40.486486486486484" height="24.923076923076934" as="geometry"/>
                    &#xa;                    &#xa;                &#xa;                
                </mxCell>
                &#xa;                &#xa;                &#xa;                
                <mxCell id="JrkNQLbtwPTF9lLLHas6-43" value="Email" style="text;html=1;strokeColor=none;fillColor=none;align=left;verticalAlign=middle;whiteSpace=wrap;rounded=0;fontSize=14;fontStyle=1;movable=0;resizable=0;rotatable=0;deletable=0;editable=0;connectable=0;" parent="JrkNQLbtwPTF9lLLHas6-36" vertex="1">
                    &#xa;                    &#xa;                    &#xa;                    
                    <mxGeometry x="11.567567567567567" y="236.76923076923086" width="23.135135135135133" height="24.923076923076934" as="geometry"/>
                    &#xa;                    &#xa;                &#xa;                
                </mxCell>
                &#xa;                &#xa;                &#xa;                
                <mxCell id="JrkNQLbtwPTF9lLLHas6-44" value="Password" style="text;html=1;strokeColor=none;fillColor=none;align=left;verticalAlign=middle;whiteSpace=wrap;rounded=0;fontSize=14;fontStyle=1;movable=0;resizable=0;rotatable=0;deletable=0;editable=0;connectable=0;" parent="JrkNQLbtwPTF9lLLHas6-36" vertex="1">
                    &#xa;                    &#xa;                    &#xa;                    
                    <mxGeometry x="11.567567567567567" y="305.3076923076923" width="23.135135135135133" height="24.923076923076934" as="geometry"/>
                    &#xa;                    &#xa;                &#xa;                
                </mxCell>
                &#xa;                &#xa;                &#xa;                
                <mxCell id="JrkNQLbtwPTF9lLLHas6-45" value="" style="rounded=0;whiteSpace=wrap;html=1;fontSize=14;align=left;movable=0;resizable=0;rotatable=0;deletable=0;editable=0;connectable=0;" parent="JrkNQLbtwPTF9lLLHas6-36" vertex="1">
                    &#xa;                    &#xa;                    &#xa;                    
                    <mxGeometry x="11.567567567567567" y="261.6923076923078" width="109.89189189189189" height="31.15384615384616" as="geometry"/>
                    &#xa;                    &#xa;                &#xa;                
                </mxCell>
                &#xa;                &#xa;                &#xa;                
                <mxCell id="JrkNQLbtwPTF9lLLHas6-46" value="" style="rounded=0;whiteSpace=wrap;html=1;fontSize=14;align=left;movable=0;resizable=0;rotatable=0;deletable=0;editable=0;connectable=0;" parent="JrkNQLbtwPTF9lLLHas6-36" vertex="1">
                    &#xa;                    &#xa;                    &#xa;                    
                    <mxGeometry x="11.567567567567567" y="330.23076923076934" width="109.89189189189189" height="31.15384615384616" as="geometry"/>
                    &#xa;                    &#xa;                &#xa;                
                </mxCell>
                &#xa;                &#xa;                &#xa;                
                <mxCell id="JrkNQLbtwPTF9lLLHas6-47" value="Sign In" style="text;html=1;strokeColor=none;fillColor=none;align=left;verticalAlign=middle;whiteSpace=wrap;rounded=0;fontSize=19;fontStyle=1;movable=0;resizable=0;rotatable=0;deletable=0;editable=0;connectable=0;" parent="JrkNQLbtwPTF9lLLHas6-36" vertex="1">
                    &#xa;                    &#xa;                    &#xa;                    
                    <mxGeometry x="11.567567567567567" y="193.15384615384622" width="98.32432432432432" height="43.615384615384635" as="geometry"/>
                    &#xa;                    &#xa;                &#xa;                
                </mxCell>
                &#xa;                &#xa;                &#xa;                
                <mxCell id="JrkNQLbtwPTF9lLLHas6-48" value="Submit" style="rounded=1;whiteSpace=wrap;html=1;fontSize=14;align=center;fontStyle=1;movable=0;resizable=0;rotatable=0;deletable=0;editable=0;connectable=0;" parent="JrkNQLbtwPTF9lLLHas6-36" vertex="1">
                    &#xa;                    &#xa;                    &#xa;                    
                    <mxGeometry x="11.567567567567567" y="373.8461538461539" width="52.05405405405404" height="37.384615384615394" as="geometry"/>
                    &#xa;                    &#xa;                &#xa;                
                </mxCell>
                &#xa;                &#xa;                &#xa;                
                <mxCell id="JrkNQLbtwPTF9lLLHas6-49" value="" style="strokeWidth=1;shadow=0;dashed=0;align=center;html=1;shape=mxgraph.mockup.containers.browserWindow;rSize=0;strokeColor=#666666;strokeColor2=#008cff;strokeColor3=#c4c4c4;mainText=,;recursiveResize=0;fontSize=16;movable=0;resizable=0;rotatable=0;deletable=0;editable=0;connectable=0;" parent="7aCm1oqQeqmt2lZ8XXNu-0" vertex="1">
                    &#xa;                    &#xa;                    &#xa;                    
                    <mxGeometry x="809.7297297297296" y="373.8461538461539" width="260.2702702702702" height="436.15384615384625" as="geometry"/>
                    &#xa;                    &#xa;                &#xa;                
                </mxCell>
                &#xa;                &#xa;                &#xa;                
                <mxCell id="JrkNQLbtwPTF9lLLHas6-50" value="Page 1" style="strokeWidth=1;shadow=0;dashed=0;align=center;html=1;shape=mxgraph.mockup.containers.anchor;fontSize=17;fontColor=#666666;align=left;movable=0;resizable=0;rotatable=0;deletable=0;editable=0;connectable=0;" parent="JrkNQLbtwPTF9lLLHas6-49" vertex="1">
                    &#xa;                    &#xa;                    &#xa;                    
                    <mxGeometry x="34.7027027027027" y="14.953846153846156" width="63.62162162162162" height="32.40000000000001" as="geometry"/>
                    &#xa;                    &#xa;                &#xa;                
                </mxCell>
                &#xa;                &#xa;                &#xa;                
                <mxCell id="JrkNQLbtwPTF9lLLHas6-51" value="" style="strokeWidth=1;shadow=0;dashed=0;align=center;html=1;shape=mxgraph.mockup.containers.anchor;rSize=0;fontSize=17;fontColor=#666666;align=left;movable=0;resizable=0;rotatable=0;deletable=0;editable=0;connectable=0;" parent="JrkNQLbtwPTF9lLLHas6-49" vertex="1">
                    &#xa;                    &#xa;                    &#xa;                    
                    <mxGeometry x="75.18918918918918" y="74.76923076923079" width="144.59459459459458" height="32.40000000000001" as="geometry"/>
                    &#xa;                    &#xa;                &#xa;                
                </mxCell>
                &#xa;                &#xa;                &#xa;                
                <mxCell id="JrkNQLbtwPTF9lLLHas6-52" value="" style="rounded=0;whiteSpace=wrap;html=1;fontSize=16;movable=0;resizable=0;rotatable=0;deletable=0;editable=0;connectable=0;" parent="JrkNQLbtwPTF9lLLHas6-49" vertex="1">
                    &#xa;                    &#xa;                    &#xa;                    
                    <mxGeometry y="137.0769230769231" width="260.2702702702702" height="49.84615384615387" as="geometry"/>
                    &#xa;                    &#xa;                &#xa;                
                </mxCell>
                &#xa;                &#xa;                &#xa;                
                <mxCell id="JrkNQLbtwPTF9lLLHas6-53" value="GitTix" style="text;html=1;strokeColor=none;fillColor=none;align=center;verticalAlign=middle;whiteSpace=wrap;rounded=0;fontSize=16;movable=0;resizable=0;rotatable=0;deletable=0;editable=0;connectable=0;" parent="JrkNQLbtwPTF9lLLHas6-49" vertex="1">
                    &#xa;                    &#xa;                    &#xa;                    
                    <mxGeometry x="11.567567567567567" y="149.53846153846158" width="23.135135135135133" height="24.923076923076934" as="geometry"/>
                    &#xa;                    &#xa;                &#xa;                
                </mxCell>
                &#xa;                &#xa;                &#xa;                
                <mxCell id="JrkNQLbtwPTF9lLLHas6-54" value="Sign Out" style="text;html=1;strokeColor=none;fillColor=none;align=center;verticalAlign=middle;whiteSpace=wrap;rounded=0;fontSize=16;movable=0;resizable=0;rotatable=0;deletable=0;editable=0;connectable=0;" parent="JrkNQLbtwPTF9lLLHas6-49" vertex="1">
                    &#xa;                    &#xa;                    &#xa;                    
                    <mxGeometry x="208.21621621621617" y="149.53846153846158" width="40.486486486486484" height="24.923076923076934" as="geometry"/>
                    &#xa;                    &#xa;                &#xa;                
                </mxCell>
                &#xa;                &#xa;                &#xa;                
                <mxCell id="JrkNQLbtwPTF9lLLHas6-55" value="You are signed in" style="text;html=1;strokeColor=none;fillColor=none;align=left;verticalAlign=middle;whiteSpace=wrap;rounded=0;fontSize=19;fontStyle=1;movable=0;resizable=0;rotatable=0;deletable=0;editable=0;connectable=0;" parent="JrkNQLbtwPTF9lLLHas6-49" vertex="1">
                    &#xa;                    &#xa;                    &#xa;                    
                    <mxGeometry x="11.567567567567567" y="205.6153846153847" width="98.32432432432432" height="24.923076923076934" as="geometry"/>
                    &#xa;                    &#xa;                &#xa;                
                </mxCell>
                &#xa;                &#xa;                &#xa;                
                <mxCell id="JrkNQLbtwPTF9lLLHas6-56" value="" style="strokeWidth=1;shadow=0;dashed=0;align=center;html=1;shape=mxgraph.mockup.containers.browserWindow;rSize=0;strokeColor=#666666;strokeColor2=#008cff;strokeColor3=#c4c4c4;mainText=,;recursiveResize=0;fontSize=16;movable=0;resizable=0;rotatable=0;deletable=0;editable=0;connectable=0;" parent="7aCm1oqQeqmt2lZ8XXNu-0" vertex="1">
                    &#xa;                    &#xa;                    &#xa;                    
                    <mxGeometry y="373.8461538461539" width="260.2702702702702" height="436.15384615384625" as="geometry"/>
                    &#xa;                    &#xa;                &#xa;                
                </mxCell>
                &#xa;                &#xa;                &#xa;                
                <mxCell id="JrkNQLbtwPTF9lLLHas6-57" value="Page 1" style="strokeWidth=1;shadow=0;dashed=0;align=center;html=1;shape=mxgraph.mockup.containers.anchor;fontSize=17;fontColor=#666666;align=left;movable=0;resizable=0;rotatable=0;deletable=0;editable=0;connectable=0;" parent="JrkNQLbtwPTF9lLLHas6-56" vertex="1">
                    &#xa;                    &#xa;                    &#xa;                    
                    <mxGeometry x="34.7027027027027" y="14.953846153846156" width="63.62162162162162" height="32.40000000000001" as="geometry"/>
                    &#xa;                    &#xa;                &#xa;                
                </mxCell>
                &#xa;                &#xa;                &#xa;                
                <mxCell id="JrkNQLbtwPTF9lLLHas6-58" value="" style="strokeWidth=1;shadow=0;dashed=0;align=center;html=1;shape=mxgraph.mockup.containers.anchor;rSize=0;fontSize=17;fontColor=#666666;align=left;movable=0;resizable=0;rotatable=0;deletable=0;editable=0;connectable=0;" parent="JrkNQLbtwPTF9lLLHas6-56" vertex="1">
                    &#xa;                    &#xa;                    &#xa;                    
                    <mxGeometry x="75.18918918918918" y="74.76923076923079" width="144.59459459459458" height="32.40000000000001" as="geometry"/>
                    &#xa;                    &#xa;                &#xa;                
                </mxCell>
                &#xa;                &#xa;                &#xa;                
                <mxCell id="JrkNQLbtwPTF9lLLHas6-59" value="" style="rounded=0;whiteSpace=wrap;html=1;fontSize=16;movable=0;resizable=0;rotatable=0;deletable=0;editable=0;connectable=0;" parent="JrkNQLbtwPTF9lLLHas6-56" vertex="1">
                    &#xa;                    &#xa;                    &#xa;                    
                    <mxGeometry y="137.0769230769231" width="260.2702702702702" height="49.84615384615387" as="geometry"/>
                    &#xa;                    &#xa;                &#xa;                
                </mxCell>
                &#xa;                &#xa;                &#xa;                
                <mxCell id="JrkNQLbtwPTF9lLLHas6-60" value="GitTix" style="text;html=1;strokeColor=none;fillColor=none;align=center;verticalAlign=middle;whiteSpace=wrap;rounded=0;fontSize=16;movable=0;resizable=0;rotatable=0;deletable=0;editable=0;connectable=0;" parent="JrkNQLbtwPTF9lLLHas6-56" vertex="1">
                    &#xa;                    &#xa;                    &#xa;                    
                    <mxGeometry x="11.567567567567567" y="149.53846153846158" width="23.135135135135133" height="24.923076923076934" as="geometry"/>
                    &#xa;                    &#xa;                &#xa;                
                </mxCell>
                &#xa;                &#xa;                &#xa;                
                <mxCell id="JrkNQLbtwPTF9lLLHas6-61" value="Sign In" style="text;html=1;strokeColor=none;fillColor=none;align=center;verticalAlign=middle;whiteSpace=wrap;rounded=0;fontSize=16;movable=0;resizable=0;rotatable=0;deletable=0;editable=0;connectable=0;" parent="JrkNQLbtwPTF9lLLHas6-56" vertex="1">
                    &#xa;                    &#xa;                    &#xa;                    
                    <mxGeometry x="208.21621621621617" y="149.53846153846158" width="40.486486486486484" height="24.923076923076934" as="geometry"/>
                    &#xa;                    &#xa;                &#xa;                
                </mxCell>
                &#xa;                &#xa;                &#xa;                
                <mxCell id="JrkNQLbtwPTF9lLLHas6-62" value="Sign Up" style="text;html=1;strokeColor=none;fillColor=none;align=center;verticalAlign=middle;whiteSpace=wrap;rounded=0;fontSize=16;movable=0;resizable=0;rotatable=0;deletable=0;editable=0;connectable=0;" parent="JrkNQLbtwPTF9lLLHas6-56" vertex="1">
                    &#xa;                    &#xa;                    &#xa;                    
                    <mxGeometry x="161.94594594594594" y="149.53846153846158" width="40.486486486486484" height="24.923076923076934" as="geometry"/>
                    &#xa;                    &#xa;                &#xa;                
                </mxCell>
                &#xa;                &#xa;                &#xa;                
                <mxCell id="JrkNQLbtwPTF9lLLHas6-63" value="You are not signed in" style="text;html=1;strokeColor=none;fillColor=none;align=left;verticalAlign=middle;whiteSpace=wrap;rounded=0;fontSize=19;fontStyle=1;movable=0;resizable=0;rotatable=0;deletable=0;editable=0;connectable=0;" parent="JrkNQLbtwPTF9lLLHas6-56" vertex="1">
                    &#xa;                    &#xa;                    &#xa;                    
                    <mxGeometry x="11.567567567567567" y="193.15384615384622" width="156.16216216216216" height="43.615384615384635" as="geometry"/>
                    &#xa;                    &#xa;                &#xa;                
                </mxCell>
                &#xa;                &#xa;                &#xa;                
                <mxCell id="JrkNQLbtwPTF9lLLHas6-64" value="index.js" style="rounded=0;whiteSpace=wrap;html=1;fontSize=25;fillColor=#f5f5f5;strokeColor=#666666;fontColor=#333333;fontStyle=1;movable=0;resizable=0;rotatable=0;deletable=0;editable=0;connectable=0;" parent="7aCm1oqQeqmt2lZ8XXNu-0" vertex="1">
                    &#xa;                    &#xa;                    &#xa;                    
                    <mxGeometry x="52.05405405405404" y="261.6923076923078" width="167.72972972972974" height="62.30769230769232" as="geometry"/>
                    &#xa;                    &#xa;                &#xa;                
                </mxCell>
                &#xa;                &#xa;                &#xa;                
                <mxCell id="JrkNQLbtwPTF9lLLHas6-65" style="edgeStyle=orthogonalEdgeStyle;rounded=0;orthogonalLoop=1;jettySize=auto;html=1;exitX=0.5;exitY=1;exitDx=0;exitDy=0;entryX=0.5;entryY=0;entryDx=0;entryDy=0;entryPerimeter=0;fontSize=17;movable=0;resizable=0;rotatable=0;deletable=0;editable=0;connectable=0;" parent="7aCm1oqQeqmt2lZ8XXNu-0" target="JrkNQLbtwPTF9lLLHas6-56" edge="1">
                    &#xa;                    &#xa;                    &#xa;                    
                    <mxGeometry relative="1" as="geometry">
                        &#xa;                        &#xa;                        &#xa;                        
                        <mxPoint x="130.1351351351351" y="324.0000000000001" as="sourcePoint"/>
                        &#xa;                        &#xa;                    &#xa;                    
                    </mxGeometry>
                    &#xa;                    &#xa;                &#xa;                
                </mxCell>
                &#xa;                &#xa;                &#xa;                
                <mxCell id="JrkNQLbtwPTF9lLLHas6-66" value="signup.js" style="rounded=0;whiteSpace=wrap;html=1;fontSize=25;fillColor=#f5f5f5;strokeColor=#666666;fontColor=#333333;fontStyle=1;movable=0;resizable=0;rotatable=0;deletable=0;editable=0;connectable=0;" parent="7aCm1oqQeqmt2lZ8XXNu-0" vertex="1">
                    &#xa;                    &#xa;                    &#xa;                    
                    <mxGeometry x="318.1081081081081" y="261.6923076923078" width="167.72972972972974" height="62.30769230769232" as="geometry"/>
                    &#xa;                    &#xa;                &#xa;                
                </mxCell>
                &#xa;                &#xa;                &#xa;                
                <mxCell id="JrkNQLbtwPTF9lLLHas6-67" value="signin.js" style="rounded=0;whiteSpace=wrap;html=1;fontSize=25;fillColor=#f5f5f5;strokeColor=#666666;fontColor=#333333;fontStyle=1;movable=0;resizable=0;rotatable=0;deletable=0;editable=0;connectable=0;" parent="7aCm1oqQeqmt2lZ8XXNu-0" vertex="1">
                    &#xa;                    &#xa;                    &#xa;                    
                    <mxGeometry x="584.1621621621621" y="261.6923076923078" width="167.72972972972974" height="62.30769230769232" as="geometry"/>
                    &#xa;                    &#xa;                &#xa;                
                </mxCell>
                &#xa;                &#xa;                &#xa;                
                <mxCell id="JrkNQLbtwPTF9lLLHas6-68" style="edgeStyle=orthogonalEdgeStyle;rounded=0;orthogonalLoop=1;jettySize=auto;html=1;exitX=0.5;exitY=1;exitDx=0;exitDy=0;entryX=0.5;entryY=0;entryDx=0;entryDy=0;entryPerimeter=0;fontSize=17;movable=0;resizable=0;rotatable=0;deletable=0;editable=0;connectable=0;" parent="7aCm1oqQeqmt2lZ8XXNu-0" edge="1">
                    &#xa;                    &#xa;                    &#xa;                    
                    <mxGeometry relative="1" as="geometry">
                        &#xa;                        &#xa;                        &#xa;                        
                        <mxPoint x="399.08108108108104" y="324.0000000000001" as="sourcePoint"/>
                        &#xa;                        &#xa;                        &#xa;                        
                        <mxPoint x="399.08108108108104" y="373.8461538461539" as="targetPoint"/>
                        &#xa;                        &#xa;                    &#xa;                    
                    </mxGeometry>
                    &#xa;                    &#xa;                &#xa;                
                </mxCell>
                &#xa;                &#xa;                &#xa;                
                <mxCell id="JrkNQLbtwPTF9lLLHas6-69" style="edgeStyle=orthogonalEdgeStyle;rounded=0;orthogonalLoop=1;jettySize=auto;html=1;exitX=0.5;exitY=1;exitDx=0;exitDy=0;entryX=0.5;entryY=0;entryDx=0;entryDy=0;entryPerimeter=0;fontSize=17;movable=0;resizable=0;rotatable=0;deletable=0;editable=0;connectable=0;" parent="7aCm1oqQeqmt2lZ8XXNu-0" edge="1">
                    &#xa;                    &#xa;                    &#xa;                    
                    <mxGeometry relative="1" as="geometry">
                        &#xa;                        &#xa;                        &#xa;                        
                        <mxPoint x="667.7378378378378" y="324.0000000000001" as="sourcePoint"/>
                        &#xa;                        &#xa;                        &#xa;                        
                        <mxPoint x="667.7378378378378" y="373.8461538461539" as="targetPoint"/>
                        &#xa;                        &#xa;                    &#xa;                    
                    </mxGeometry>
                    &#xa;                    &#xa;                &#xa;                
                </mxCell>
                &#xa;                &#xa;                &#xa;                
                <mxCell id="JrkNQLbtwPTF9lLLHas6-70" style="edgeStyle=orthogonalEdgeStyle;rounded=0;orthogonalLoop=1;jettySize=auto;html=1;exitX=0.5;exitY=1;exitDx=0;exitDy=0;fontSize=17;movable=0;resizable=0;rotatable=0;deletable=0;editable=0;connectable=0;" parent="7aCm1oqQeqmt2lZ8XXNu-0" source="JrkNQLbtwPTF9lLLHas6-74" target="JrkNQLbtwPTF9lLLHas6-64" edge="1">
                    &#xa;                    &#xa;                    &#xa;                    
                    <mxGeometry relative="1" as="geometry">
                        &#xa;                        &#xa;                        &#xa;                        
                        <Array as="points">
                            &#xa;                            &#xa;                            &#xa;                            
                            <mxPoint x="401.9729729729729" y="186.92307692307696"/>
                            &#xa;                            &#xa;                            &#xa;                            
                            <mxPoint x="135.9189189189189" y="186.92307692307696"/>
                            &#xa;                            &#xa;                        &#xa;                        
                        </Array>
                        &#xa;                        &#xa;                    &#xa;                    
                    </mxGeometry>
                    &#xa;                    &#xa;                &#xa;                
                </mxCell>
                &#xa;                &#xa;                &#xa;                
                <mxCell id="JrkNQLbtwPTF9lLLHas6-71" style="edgeStyle=orthogonalEdgeStyle;rounded=0;orthogonalLoop=1;jettySize=auto;html=1;exitX=0.5;exitY=1;exitDx=0;exitDy=0;fontSize=17;movable=0;resizable=0;rotatable=0;deletable=0;editable=0;connectable=0;" parent="7aCm1oqQeqmt2lZ8XXNu-0" source="JrkNQLbtwPTF9lLLHas6-74" target="JrkNQLbtwPTF9lLLHas6-66" edge="1">
                    &#xa;                    &#xa;                    &#xa;                    
                    <mxGeometry relative="1" as="geometry"/>
                    &#xa;                    &#xa;                &#xa;                
                </mxCell>
                &#xa;                &#xa;                &#xa;                
                <mxCell id="JrkNQLbtwPTF9lLLHas6-72" style="edgeStyle=orthogonalEdgeStyle;rounded=0;orthogonalLoop=1;jettySize=auto;html=1;exitX=0.5;exitY=1;exitDx=0;exitDy=0;fontSize=17;movable=0;resizable=0;rotatable=0;deletable=0;editable=0;connectable=0;" parent="7aCm1oqQeqmt2lZ8XXNu-0" source="JrkNQLbtwPTF9lLLHas6-74" target="JrkNQLbtwPTF9lLLHas6-67" edge="1">
                    &#xa;                    &#xa;                    &#xa;                    
                    <mxGeometry relative="1" as="geometry">
                        &#xa;                        &#xa;                        &#xa;                        
                        <Array as="points">
                            &#xa;                            &#xa;                            &#xa;                            
                            <mxPoint x="401.9729729729729" y="186.92307692307696"/>
                            &#xa;                            &#xa;                            &#xa;                            
                            <mxPoint x="668.027027027027" y="186.92307692307696"/>
                            &#xa;                            &#xa;                        &#xa;                        
                        </Array>
                        &#xa;                        &#xa;                    &#xa;                    
                    </mxGeometry>
                    &#xa;                    &#xa;                &#xa;                
                </mxCell>
                &#xa;                &#xa;                &#xa;                
                <mxCell id="JrkNQLbtwPTF9lLLHas6-74" value="App Component" style="rounded=0;whiteSpace=wrap;html=1;fontSize=25;fillColor=#f5f5f5;strokeColor=#666666;fontColor=#333333;fontStyle=1;movable=0;resizable=0;rotatable=0;deletable=0;editable=0;connectable=0;" parent="7aCm1oqQeqmt2lZ8XXNu-0" vertex="1">
                    &#xa;                    &#xa;                    &#xa;                    
                    <mxGeometry x="318.1081081081081" width="167.72972972972974" height="62.30769230769232" as="geometry"/>
                    &#xa;                    &#xa;                &#xa;                
                </mxCell>
                &#xa;                &#xa;                &#xa;                
                <mxCell id="JrkNQLbtwPTF9lLLHas6-75" value="Header" style="rounded=0;whiteSpace=wrap;html=1;fontSize=25;fillColor=#f5f5f5;strokeColor=#666666;fontColor=#333333;fontStyle=1;movable=0;resizable=0;rotatable=0;deletable=0;editable=0;connectable=0;" parent="7aCm1oqQeqmt2lZ8XXNu-0" vertex="1">
                    &#xa;                    &#xa;                    &#xa;                    
                    <mxGeometry x="485.83783783783787" y="112.15384615384617" width="167.72972972972974" height="62.30769230769232" as="geometry"/>
                    &#xa;                    &#xa;                &#xa;                
                </mxCell>
                &#xa;                &#xa;                &#xa;                
                <mxCell id="JrkNQLbtwPTF9lLLHas6-73" style="edgeStyle=orthogonalEdgeStyle;rounded=0;orthogonalLoop=1;jettySize=auto;html=1;exitX=0.75;exitY=1;exitDx=0;exitDy=0;fontSize=17;movable=0;resizable=0;rotatable=0;deletable=0;editable=0;connectable=0;" parent="7aCm1oqQeqmt2lZ8XXNu-0" source="JrkNQLbtwPTF9lLLHas6-74" target="JrkNQLbtwPTF9lLLHas6-75" edge="1">
                    &#xa;                    &#xa;                    &#xa;                    
                    <mxGeometry relative="1" as="geometry"/>
                    &#xa;                    &#xa;                &#xa;                
                </mxCell>
                &#xa;                &#xa;            &#xa;            
            </root>
            &#xa;            &#xa;        &#xa;        
        </mxGraphModel>
        &#xa;        &#xa;    &#xa;    
    </diagram>
    <diagram id="eYDwat0weqEOSedLQ_7a" name="auth-routes">
        &#xa;        &#xa;        &#xa;        
        <mxGraphModel dx="1532" dy="1152" grid="1" gridSize="10" guides="1" tooltips="1" connect="1" arrows="1" fold="1" page="1" pageScale="1" pageWidth="1100" pageHeight="850" math="0" shadow="0">
            &#xa;            &#xa;            &#xa;            
            <root>
                &#xa;                &#xa;                &#xa;                
                <mxCell id="Wn__y29Ek98Kaub2QeB0-0"/>
                &#xa;                &#xa;                &#xa;                
                <mxCell id="Wn__y29Ek98Kaub2QeB0-1" parent="Wn__y29Ek98Kaub2QeB0-0"/>
                &#xa;                &#xa;                &#xa;                
                <mxCell id="vEULbntBedDqsxQ_-8_h-0" value="&lt;font color=&quot;#000000&quot;&gt;auth&lt;/font&gt;" style="rounded=0;whiteSpace=wrap;html=1;fontSize=20;align=center;fillColor=#dae8fc;strokeColor=#6c8ebf;fontStyle=1;movable=0;resizable=0;rotatable=0;deletable=0;editable=0;connectable=0;" parent="Wn__y29Ek98Kaub2QeB0-1" vertex="1">
                    &#xa;                    &#xa;                    &#xa;                    
                    <mxGeometry x="200" y="260" width="660" height="30" as="geometry"/>
                    &#xa;                    &#xa;                &#xa;                
                </mxCell>
                &#xa;                &#xa;                &#xa;                
                <mxCell id="vEULbntBedDqsxQ_-8_h-1" value="POST" style="rounded=0;whiteSpace=wrap;html=1;fontSize=17;align=center;movable=0;resizable=0;rotatable=0;deletable=0;editable=0;connectable=0;" parent="Wn__y29Ek98Kaub2QeB0-1" vertex="1">
                    &#xa;                    &#xa;                    &#xa;                    
                    <mxGeometry x="370" y="317" width="110" height="50" as="geometry"/>
                    &#xa;                    &#xa;                &#xa;                
                </mxCell>
                &#xa;                &#xa;                &#xa;                
                <mxCell id="vEULbntBedDqsxQ_-8_h-2" value="/api/users/signup" style="rounded=0;whiteSpace=wrap;html=1;fontSize=15;align=center;movable=0;resizable=0;rotatable=0;deletable=0;editable=0;connectable=0;" parent="Wn__y29Ek98Kaub2QeB0-1" vertex="1">
                    &#xa;                    &#xa;                    &#xa;                    
                    <mxGeometry x="200" y="317" width="160" height="50" as="geometry"/>
                    &#xa;                    &#xa;                &#xa;                
                </mxCell>
                &#xa;                &#xa;                &#xa;                
                <mxCell id="vEULbntBedDqsxQ_-8_h-3" value="{ email: string, password: string }" style="rounded=0;whiteSpace=wrap;html=1;fontSize=11;align=center;movable=0;resizable=0;rotatable=0;deletable=0;editable=0;connectable=0;" parent="Wn__y29Ek98Kaub2QeB0-1" vertex="1">
                    &#xa;                    &#xa;                    &#xa;                    
                    <mxGeometry x="490" y="317" width="170" height="50" as="geometry"/>
                    &#xa;                    &#xa;                &#xa;                
                </mxCell>
                &#xa;                &#xa;                &#xa;                
                <mxCell id="vEULbntBedDqsxQ_-8_h-4" value="Sign up for an account" style="rounded=0;whiteSpace=wrap;html=1;fontSize=17;align=center;movable=0;resizable=0;rotatable=0;deletable=0;editable=0;connectable=0;" parent="Wn__y29Ek98Kaub2QeB0-1" vertex="1">
                    &#xa;                    &#xa;                    &#xa;                    
                    <mxGeometry x="670" y="317" width="190" height="50" as="geometry"/>
                    &#xa;                    &#xa;                &#xa;                
                </mxCell>
                &#xa;                &#xa;                &#xa;                
                <mxCell id="vEULbntBedDqsxQ_-8_h-5" value="&lt;font color=&quot;#000000&quot;&gt;Method&lt;/font&gt;" style="rounded=0;whiteSpace=wrap;html=1;fontSize=14;align=center;fillColor=#d5e8d4;strokeColor=#82b366;movable=0;resizable=0;rotatable=0;deletable=0;editable=0;connectable=0;" parent="Wn__y29Ek98Kaub2QeB0-1" vertex="1">
                    &#xa;                    &#xa;                    &#xa;                    
                    <mxGeometry x="370" y="290" width="110" height="27" as="geometry"/>
                    &#xa;                    &#xa;                &#xa;                
                </mxCell>
                &#xa;                &#xa;                &#xa;                
                <mxCell id="vEULbntBedDqsxQ_-8_h-6" value="&lt;font color=&quot;#000000&quot;&gt;Route&lt;/font&gt;" style="rounded=0;whiteSpace=wrap;html=1;fontSize=14;align=center;fillColor=#d5e8d4;strokeColor=#82b366;movable=0;resizable=0;rotatable=0;deletable=0;editable=0;connectable=0;" parent="Wn__y29Ek98Kaub2QeB0-1" vertex="1">
                    &#xa;                    &#xa;                    &#xa;                    
                    <mxGeometry x="200" y="290" width="160" height="27" as="geometry"/>
                    &#xa;                    &#xa;                &#xa;                
                </mxCell>
                &#xa;                &#xa;                &#xa;                
                <mxCell id="vEULbntBedDqsxQ_-8_h-7" value="&lt;font color=&quot;#000000&quot;&gt;Body&lt;/font&gt;" style="rounded=0;whiteSpace=wrap;html=1;fontSize=14;align=center;fillColor=#d5e8d4;strokeColor=#82b366;movable=0;resizable=0;rotatable=0;deletable=0;editable=0;connectable=0;" parent="Wn__y29Ek98Kaub2QeB0-1" vertex="1">
                    &#xa;                    &#xa;                    &#xa;                    
                    <mxGeometry x="490" y="290" width="170" height="27" as="geometry"/>
                    &#xa;                    &#xa;                &#xa;                
                </mxCell>
                &#xa;                &#xa;                &#xa;                
                <mxCell id="vEULbntBedDqsxQ_-8_h-8" value="&lt;font color=&quot;#000000&quot;&gt;Purpose&lt;/font&gt;" style="rounded=0;whiteSpace=wrap;html=1;fontSize=14;align=center;fillColor=#d5e8d4;strokeColor=#82b366;movable=0;resizable=0;rotatable=0;deletable=0;editable=0;connectable=0;" parent="Wn__y29Ek98Kaub2QeB0-1" vertex="1">
                    &#xa;                    &#xa;                    &#xa;                    
                    <mxGeometry x="670" y="290" width="190" height="27" as="geometry"/>
                    &#xa;                    &#xa;                &#xa;                
                </mxCell>
                &#xa;                &#xa;                &#xa;                
                <mxCell id="vEULbntBedDqsxQ_-8_h-9" value="POST" style="rounded=0;whiteSpace=wrap;html=1;fontSize=17;align=center;movable=0;resizable=0;rotatable=0;deletable=0;editable=0;connectable=0;" parent="Wn__y29Ek98Kaub2QeB0-1" vertex="1">
                    &#xa;                    &#xa;                    &#xa;                    
                    <mxGeometry x="370" y="367" width="110" height="50" as="geometry"/>
                    &#xa;                    &#xa;                &#xa;                
                </mxCell>
                &#xa;                &#xa;                &#xa;                
                <mxCell id="vEULbntBedDqsxQ_-8_h-10" value="/api/users/signin" style="rounded=0;whiteSpace=wrap;html=1;fontSize=15;align=center;movable=0;resizable=0;rotatable=0;deletable=0;editable=0;connectable=0;" parent="Wn__y29Ek98Kaub2QeB0-1" vertex="1">
                    &#xa;                    &#xa;                    &#xa;                    
                    <mxGeometry x="200" y="367" width="160" height="50" as="geometry"/>
                    &#xa;                    &#xa;                &#xa;                
                </mxCell>
                &#xa;                &#xa;                &#xa;                
                <mxCell id="vEULbntBedDqsxQ_-8_h-11" value="{ email: string, password: string }" style="rounded=0;whiteSpace=wrap;html=1;fontSize=11;align=center;movable=0;resizable=0;rotatable=0;deletable=0;editable=0;connectable=0;" parent="Wn__y29Ek98Kaub2QeB0-1" vertex="1">
                    &#xa;                    &#xa;                    &#xa;                    
                    <mxGeometry x="490" y="367" width="170" height="50" as="geometry"/>
                    &#xa;                    &#xa;                &#xa;                
                </mxCell>
                &#xa;                &#xa;                &#xa;                
                <mxCell id="vEULbntBedDqsxQ_-8_h-12" value="Sign in to an existing account" style="rounded=0;whiteSpace=wrap;html=1;fontSize=17;align=center;movable=0;resizable=0;rotatable=0;deletable=0;editable=0;connectable=0;" parent="Wn__y29Ek98Kaub2QeB0-1" vertex="1">
                    &#xa;                    &#xa;                    &#xa;                    
                    <mxGeometry x="670" y="367" width="190" height="50" as="geometry"/>
                    &#xa;                    &#xa;                &#xa;                
                </mxCell>
                &#xa;                &#xa;                &#xa;                
                <mxCell id="vEULbntBedDqsxQ_-8_h-13" value="POST" style="rounded=0;whiteSpace=wrap;html=1;fontSize=17;align=center;movable=0;resizable=0;rotatable=0;deletable=0;editable=0;connectable=0;" parent="Wn__y29Ek98Kaub2QeB0-1" vertex="1">
                    &#xa;                    &#xa;                    &#xa;                    
                    <mxGeometry x="370" y="417" width="110" height="50" as="geometry"/>
                    &#xa;                    &#xa;                &#xa;                
                </mxCell>
                &#xa;                &#xa;                &#xa;                
                <mxCell id="vEULbntBedDqsxQ_-8_h-14" value="/api/users/signout" style="rounded=0;whiteSpace=wrap;html=1;fontSize=15;align=center;movable=0;resizable=0;rotatable=0;deletable=0;editable=0;connectable=0;" parent="Wn__y29Ek98Kaub2QeB0-1" vertex="1">
                    &#xa;                    &#xa;                    &#xa;                    
                    <mxGeometry x="200" y="417" width="160" height="50" as="geometry"/>
                    &#xa;                    &#xa;                &#xa;                
                </mxCell>
                &#xa;                &#xa;                &#xa;                
                <mxCell id="vEULbntBedDqsxQ_-8_h-15" value="{}" style="rounded=0;whiteSpace=wrap;html=1;fontSize=11;align=center;movable=0;resizable=0;rotatable=0;deletable=0;editable=0;connectable=0;" parent="Wn__y29Ek98Kaub2QeB0-1" vertex="1">
                    &#xa;                    &#xa;                    &#xa;                    
                    <mxGeometry x="490" y="417" width="170" height="50" as="geometry"/>
                    &#xa;                    &#xa;                &#xa;                
                </mxCell>
                &#xa;                &#xa;                &#xa;                
                <mxCell id="vEULbntBedDqsxQ_-8_h-16" value="Sign out" style="rounded=0;whiteSpace=wrap;html=1;fontSize=17;align=center;movable=0;resizable=0;rotatable=0;deletable=0;editable=0;connectable=0;" parent="Wn__y29Ek98Kaub2QeB0-1" vertex="1">
                    &#xa;                    &#xa;                    &#xa;                    
                    <mxGeometry x="670" y="417" width="190" height="50" as="geometry"/>
                    &#xa;                    &#xa;                &#xa;                
                </mxCell>
                &#xa;                &#xa;                &#xa;                
                <mxCell id="vEULbntBedDqsxQ_-8_h-17" value="GET" style="rounded=0;whiteSpace=wrap;html=1;fontSize=17;align=center;movable=0;resizable=0;rotatable=0;deletable=0;editable=0;connectable=0;" parent="Wn__y29Ek98Kaub2QeB0-1" vertex="1">
                    &#xa;                    &#xa;                    &#xa;                    
                    <mxGeometry x="370" y="467" width="110" height="50" as="geometry"/>
                    &#xa;                    &#xa;                &#xa;                
                </mxCell>
                &#xa;                &#xa;                &#xa;                
                <mxCell id="vEULbntBedDqsxQ_-8_h-18" value="/api/users/currentuser" style="rounded=0;whiteSpace=wrap;html=1;fontSize=15;align=center;movable=0;resizable=0;rotatable=0;deletable=0;editable=0;connectable=0;" parent="Wn__y29Ek98Kaub2QeB0-1" vertex="1">
                    &#xa;                    &#xa;                    &#xa;                    
                    <mxGeometry x="200" y="467" width="160" height="50" as="geometry"/>
                    &#xa;                    &#xa;                &#xa;                
                </mxCell>
                &#xa;                &#xa;                &#xa;                
                <mxCell id="vEULbntBedDqsxQ_-8_h-19" value="-" style="rounded=0;whiteSpace=wrap;html=1;fontSize=11;align=center;movable=0;resizable=0;rotatable=0;deletable=0;editable=0;connectable=0;" parent="Wn__y29Ek98Kaub2QeB0-1" vertex="1">
                    &#xa;                    &#xa;                    &#xa;                    
                    <mxGeometry x="490" y="467" width="170" height="50" as="geometry"/>
                    &#xa;                    &#xa;                &#xa;                
                </mxCell>
                &#xa;                &#xa;                &#xa;                
                <mxCell id="vEULbntBedDqsxQ_-8_h-20" value="Return info about the user" style="rounded=0;whiteSpace=wrap;html=1;fontSize=17;align=center;movable=0;resizable=0;rotatable=0;deletable=0;editable=0;connectable=0;" parent="Wn__y29Ek98Kaub2QeB0-1" vertex="1">
                    &#xa;                    &#xa;                    &#xa;                    
                    <mxGeometry x="670" y="467" width="190" height="50" as="geometry"/>
                    &#xa;                    &#xa;                &#xa;                
                </mxCell>
                &#xa;                &#xa;            &#xa;            
            </root>
            &#xa;            &#xa;        &#xa;        
        </mxGraphModel>
        &#xa;        &#xa;    &#xa;    
    </diagram>
    <diagram name="tickets-routes" id="VnYTeVZnJWRj1wzdloRt">
        &#xa;        &#xa;        &#xa;        
        <mxGraphModel dx="1532" dy="1152" grid="1" gridSize="10" guides="1" tooltips="1" connect="1" arrows="1" fold="1" page="1" pageScale="1" pageWidth="1100" pageHeight="850" math="0" shadow="0">
            &#xa;            &#xa;            &#xa;            
            <root>
                &#xa;                &#xa;                &#xa;                
                <mxCell id="BbLxW-xu11G7NxCxaQRo-0"/>
                &#xa;                &#xa;                &#xa;                
                <mxCell id="BbLxW-xu11G7NxCxaQRo-1" parent="BbLxW-xu11G7NxCxaQRo-0"/>
                &#xa;                &#xa;                &#xa;                
                <mxCell id="Ps4XzCeLg5ioI6pcZvpC-0" value="Tickets Service" style="rounded=0;whiteSpace=wrap;html=1;fillColor=#dae8fc;strokeColor=#6c8ebf;fontStyle=1;fontSize=18;fontColor=#000000;movable=0;resizable=0;rotatable=0;deletable=0;editable=0;connectable=0;" parent="BbLxW-xu11G7NxCxaQRo-1" vertex="1">
                    &#xa;                    &#xa;                    &#xa;                    
                    <mxGeometry x="240" y="270" width="560" height="40" as="geometry"/>
                    &#xa;                    &#xa;                &#xa;                
                </mxCell>
                &#xa;                &#xa;                &#xa;                
                <mxCell id="Ps4XzCeLg5ioI6pcZvpC-1" value="Route" style="rounded=0;whiteSpace=wrap;html=1;fontSize=18;fillColor=#d5e8d4;strokeColor=#82b366;fontColor=#000000;movable=0;resizable=0;rotatable=0;deletable=0;editable=0;connectable=0;" parent="BbLxW-xu11G7NxCxaQRo-1" vertex="1">
                    &#xa;                    &#xa;                    &#xa;                    
                    <mxGeometry x="240" y="310" width="140" height="40" as="geometry"/>
                    &#xa;                    &#xa;                &#xa;                
                </mxCell>
                &#xa;                &#xa;                &#xa;                
                <mxCell id="Ps4XzCeLg5ioI6pcZvpC-2" value="Method" style="rounded=0;whiteSpace=wrap;html=1;fontSize=18;fillColor=#d5e8d4;strokeColor=#82b366;fontColor=#000000;movable=0;resizable=0;rotatable=0;deletable=0;editable=0;connectable=0;" parent="BbLxW-xu11G7NxCxaQRo-1" vertex="1">
                    &#xa;                    &#xa;                    &#xa;                    
                    <mxGeometry x="380" y="310" width="140" height="40" as="geometry"/>
                    &#xa;                    &#xa;                &#xa;                
                </mxCell>
                &#xa;                &#xa;                &#xa;                
                <mxCell id="Ps4XzCeLg5ioI6pcZvpC-3" value="Body" style="rounded=0;whiteSpace=wrap;html=1;fontSize=18;fillColor=#d5e8d4;strokeColor=#82b366;fontColor=#000000;movable=0;resizable=0;rotatable=0;deletable=0;editable=0;connectable=0;" parent="BbLxW-xu11G7NxCxaQRo-1" vertex="1">
                    &#xa;                    &#xa;                    &#xa;                    
                    <mxGeometry x="520" y="310" width="140" height="40" as="geometry"/>
                    &#xa;                    &#xa;                &#xa;                
                </mxCell>
                &#xa;                &#xa;                &#xa;                
                <mxCell id="Ps4XzCeLg5ioI6pcZvpC-4" value="Goal" style="rounded=0;whiteSpace=wrap;html=1;fontSize=18;fillColor=#d5e8d4;strokeColor=#82b366;fontColor=#000000;movable=0;resizable=0;rotatable=0;deletable=0;editable=0;connectable=0;" parent="BbLxW-xu11G7NxCxaQRo-1" vertex="1">
                    &#xa;                    &#xa;                    &#xa;                    
                    <mxGeometry x="660" y="310" width="140" height="40" as="geometry"/>
                    &#xa;                    &#xa;                &#xa;                
                </mxCell>
                &#xa;                &#xa;                &#xa;                
                <mxCell id="Ps4XzCeLg5ioI6pcZvpC-5" value="/api/tickets" style="rounded=0;whiteSpace=wrap;html=1;fontSize=14;movable=0;resizable=0;rotatable=0;deletable=0;editable=0;connectable=0;" parent="BbLxW-xu11G7NxCxaQRo-1" vertex="1">
                    &#xa;                    &#xa;                    &#xa;                    
                    <mxGeometry x="240" y="350" width="140" height="40" as="geometry"/>
                    &#xa;                    &#xa;                &#xa;                
                </mxCell>
                &#xa;                &#xa;                &#xa;                
                <mxCell id="Ps4XzCeLg5ioI6pcZvpC-6" value="GET" style="rounded=0;whiteSpace=wrap;html=1;fontSize=14;movable=0;resizable=0;rotatable=0;deletable=0;editable=0;connectable=0;" parent="BbLxW-xu11G7NxCxaQRo-1" vertex="1">
                    &#xa;                    &#xa;                    &#xa;                    
                    <mxGeometry x="380" y="350" width="140" height="40" as="geometry"/>
                    &#xa;                    &#xa;                &#xa;                
                </mxCell>
                &#xa;                &#xa;                &#xa;                
                <mxCell id="Ps4XzCeLg5ioI6pcZvpC-7" value="-" style="rounded=0;whiteSpace=wrap;html=1;fontSize=14;movable=0;resizable=0;rotatable=0;deletable=0;editable=0;connectable=0;" parent="BbLxW-xu11G7NxCxaQRo-1" vertex="1">
                    &#xa;                    &#xa;                    &#xa;                    
                    <mxGeometry x="520" y="350" width="140" height="40" as="geometry"/>
                    &#xa;                    &#xa;                &#xa;                
                </mxCell>
                &#xa;                &#xa;                &#xa;                
                <mxCell id="Ps4XzCeLg5ioI6pcZvpC-8" value="Retrieve all tickets" style="rounded=0;whiteSpace=wrap;html=1;fontSize=14;movable=0;resizable=0;rotatable=0;deletable=0;editable=0;connectable=0;" parent="BbLxW-xu11G7NxCxaQRo-1" vertex="1">
                    &#xa;                    &#xa;                    &#xa;                    
                    <mxGeometry x="660" y="350" width="140" height="40" as="geometry"/>
                    &#xa;                    &#xa;                &#xa;                
                </mxCell>
                &#xa;                &#xa;                &#xa;                
                <mxCell id="Ps4XzCeLg5ioI6pcZvpC-9" value="/api/tickets/:id" style="rounded=0;whiteSpace=wrap;html=1;fontSize=14;movable=0;resizable=0;rotatable=0;deletable=0;editable=0;connectable=0;" parent="BbLxW-xu11G7NxCxaQRo-1" vertex="1">
                    &#xa;                    &#xa;                    &#xa;                    
                    <mxGeometry x="240" y="390" width="140" height="40" as="geometry"/>
                    &#xa;                    &#xa;                &#xa;                
                </mxCell>
                &#xa;                &#xa;                &#xa;                
                <mxCell id="Ps4XzCeLg5ioI6pcZvpC-10" value="GET" style="rounded=0;whiteSpace=wrap;html=1;fontSize=14;movable=0;resizable=0;rotatable=0;deletable=0;editable=0;connectable=0;" parent="BbLxW-xu11G7NxCxaQRo-1" vertex="1">
                    &#xa;                    &#xa;                    &#xa;                    
                    <mxGeometry x="380" y="390" width="140" height="40" as="geometry"/>
                    &#xa;                    &#xa;                &#xa;                
                </mxCell>
                &#xa;                &#xa;                &#xa;                
                <mxCell id="Ps4XzCeLg5ioI6pcZvpC-11" value="-" style="rounded=0;whiteSpace=wrap;html=1;fontSize=14;movable=0;resizable=0;rotatable=0;deletable=0;editable=0;connectable=0;" parent="BbLxW-xu11G7NxCxaQRo-1" vertex="1">
                    &#xa;                    &#xa;                    &#xa;                    
                    <mxGeometry x="520" y="390" width="140" height="40" as="geometry"/>
                    &#xa;                    &#xa;                &#xa;                
                </mxCell>
                &#xa;                &#xa;                &#xa;                
                <mxCell id="Ps4XzCeLg5ioI6pcZvpC-12" value="Retrieve ticket with specific ID" style="rounded=0;whiteSpace=wrap;html=1;fontSize=14;movable=0;resizable=0;rotatable=0;deletable=0;editable=0;connectable=0;" parent="BbLxW-xu11G7NxCxaQRo-1" vertex="1">
                    &#xa;                    &#xa;                    &#xa;                    
                    <mxGeometry x="660" y="390" width="140" height="40" as="geometry"/>
                    &#xa;                    &#xa;                &#xa;                
                </mxCell>
                &#xa;                &#xa;                &#xa;                
                <mxCell id="Ps4XzCeLg5ioI6pcZvpC-13" value="/api/tickets" style="rounded=0;whiteSpace=wrap;html=1;fontSize=14;movable=0;resizable=0;rotatable=0;deletable=0;editable=0;connectable=0;" parent="BbLxW-xu11G7NxCxaQRo-1" vertex="1">
                    &#xa;                    &#xa;                    &#xa;                    
                    <mxGeometry x="240" y="430" width="140" height="40" as="geometry"/>
                    &#xa;                    &#xa;                &#xa;                
                </mxCell>
                &#xa;                &#xa;                &#xa;                
                <mxCell id="Ps4XzCeLg5ioI6pcZvpC-14" value="POST" style="rounded=0;whiteSpace=wrap;html=1;fontSize=14;movable=0;resizable=0;rotatable=0;deletable=0;editable=0;connectable=0;" parent="BbLxW-xu11G7NxCxaQRo-1" vertex="1">
                    &#xa;                    &#xa;                    &#xa;                    
                    <mxGeometry x="380" y="430" width="140" height="40" as="geometry"/>
                    &#xa;                    &#xa;                &#xa;                
                </mxCell>
                &#xa;                &#xa;                &#xa;                
                <mxCell id="Ps4XzCeLg5ioI6pcZvpC-15" value="{ title: string, price: string }" style="rounded=0;whiteSpace=wrap;html=1;fontSize=14;movable=0;resizable=0;rotatable=0;deletable=0;editable=0;connectable=0;" parent="BbLxW-xu11G7NxCxaQRo-1" vertex="1">
                    &#xa;                    &#xa;                    &#xa;                    
                    <mxGeometry x="520" y="430" width="140" height="40" as="geometry"/>
                    &#xa;                    &#xa;                &#xa;                
                </mxCell>
                &#xa;                &#xa;                &#xa;                
                <mxCell id="Ps4XzCeLg5ioI6pcZvpC-16" value="Create a ticket" style="rounded=0;whiteSpace=wrap;html=1;fontSize=14;movable=0;resizable=0;rotatable=0;deletable=0;editable=0;connectable=0;" parent="BbLxW-xu11G7NxCxaQRo-1" vertex="1">
                    &#xa;                    &#xa;                    &#xa;                    
                    <mxGeometry x="660" y="430" width="140" height="40" as="geometry"/>
                    &#xa;                    &#xa;                &#xa;                
                </mxCell>
                &#xa;                &#xa;                &#xa;                
                <mxCell id="Ps4XzCeLg5ioI6pcZvpC-17" value="/api/tickets/:id" style="rounded=0;whiteSpace=wrap;html=1;fontSize=14;movable=0;resizable=0;rotatable=0;deletable=0;editable=0;connectable=0;" parent="BbLxW-xu11G7NxCxaQRo-1" vertex="1">
                    &#xa;                    &#xa;                    &#xa;                    
                    <mxGeometry x="240" y="470" width="140" height="40" as="geometry"/>
                    &#xa;                    &#xa;                &#xa;                
                </mxCell>
                &#xa;                &#xa;                &#xa;                
                <mxCell id="Ps4XzCeLg5ioI6pcZvpC-18" value="PUT" style="rounded=0;whiteSpace=wrap;html=1;fontSize=14;movable=0;resizable=0;rotatable=0;deletable=0;editable=0;connectable=0;" parent="BbLxW-xu11G7NxCxaQRo-1" vertex="1">
                    &#xa;                    &#xa;                    &#xa;                    
                    <mxGeometry x="380" y="470" width="140" height="40" as="geometry"/>
                    &#xa;                    &#xa;                &#xa;                
                </mxCell>
                &#xa;                &#xa;                &#xa;                
                <mxCell id="Ps4XzCeLg5ioI6pcZvpC-19" value="{ title: string, price: string }" style="rounded=0;whiteSpace=wrap;html=1;fontSize=14;movable=0;resizable=0;rotatable=0;deletable=0;editable=0;connectable=0;" parent="BbLxW-xu11G7NxCxaQRo-1" vertex="1">
                    &#xa;                    &#xa;                    &#xa;                    
                    <mxGeometry x="520" y="470" width="140" height="40" as="geometry"/>
                    &#xa;                    &#xa;                &#xa;                
                </mxCell>
                &#xa;                &#xa;                &#xa;                
                <mxCell id="Ps4XzCeLg5ioI6pcZvpC-20" value="Update a ticket" style="rounded=0;whiteSpace=wrap;html=1;fontSize=14;movable=0;resizable=0;rotatable=0;deletable=0;editable=0;connectable=0;" parent="BbLxW-xu11G7NxCxaQRo-1" vertex="1">
                    &#xa;                    &#xa;                    &#xa;                    
                    <mxGeometry x="660" y="470" width="140" height="40" as="geometry"/>
                    &#xa;                    &#xa;                &#xa;                
                </mxCell>
                &#xa;                &#xa;            &#xa;            
            </root>
            &#xa;            &#xa;        &#xa;        
        </mxGraphModel>
        &#xa;        &#xa;    &#xa;    
    </diagram>
    <diagram name="orders-routes" id="sO0W_ir0TFJdAhQFSRXr">
        &#xa;        &#xa;        &#xa;        
        <mxGraphModel dx="1532" dy="1152" grid="1" gridSize="10" guides="1" tooltips="1" connect="1" arrows="1" fold="1" page="1" pageScale="1" pageWidth="1100" pageHeight="850" math="0" shadow="0">
            &#xa;            &#xa;            &#xa;            
            <root>
                &#xa;                &#xa;                &#xa;                
                <mxCell id="23jr6QPACW3JQ0JePleg-0"/>
                &#xa;                &#xa;                &#xa;                
                <mxCell id="23jr6QPACW3JQ0JePleg-1" parent="23jr6QPACW3JQ0JePleg-0"/>
                &#xa;                &#xa;                &#xa;                
                <mxCell id="e-B5iaQcXE6NJZ_y4BPK-0" value="orders" style="rounded=0;whiteSpace=wrap;html=1;fontSize=20;align=center;fillColor=#dae8fc;strokeColor=#6c8ebf;fontStyle=1;fontColor=#000000;movable=0;resizable=0;rotatable=0;deletable=0;editable=0;connectable=0;" parent="23jr6QPACW3JQ0JePleg-1" vertex="1">
                    &#xa;                    &#xa;                    &#xa;                    
                    <mxGeometry x="220" y="220" width="660" height="30" as="geometry"/>
                    &#xa;                    &#xa;                &#xa;                
                </mxCell>
                &#xa;                &#xa;                &#xa;                
                <mxCell id="e-B5iaQcXE6NJZ_y4BPK-1" value="GET" style="rounded=0;whiteSpace=wrap;html=1;fontSize=17;align=center;movable=0;resizable=0;rotatable=0;deletable=0;editable=0;connectable=0;" parent="23jr6QPACW3JQ0JePleg-1" vertex="1">
                    &#xa;                    &#xa;                    &#xa;                    
                    <mxGeometry x="390" y="277" width="110" height="50" as="geometry"/>
                    &#xa;                    &#xa;                &#xa;                
                </mxCell>
                &#xa;                &#xa;                &#xa;                
                <mxCell id="e-B5iaQcXE6NJZ_y4BPK-2" value="/api/orders" style="rounded=0;whiteSpace=wrap;html=1;fontSize=15;align=center;movable=0;resizable=0;rotatable=0;deletable=0;editable=0;connectable=0;" parent="23jr6QPACW3JQ0JePleg-1" vertex="1">
                    &#xa;                    &#xa;                    &#xa;                    
                    <mxGeometry x="220" y="277" width="160" height="50" as="geometry"/>
                    &#xa;                    &#xa;                &#xa;                
                </mxCell>
                &#xa;                &#xa;                &#xa;                
                <mxCell id="e-B5iaQcXE6NJZ_y4BPK-3" value="-" style="rounded=0;whiteSpace=wrap;html=1;fontSize=11;align=center;movable=0;resizable=0;rotatable=0;deletable=0;editable=0;connectable=0;" parent="23jr6QPACW3JQ0JePleg-1" vertex="1">
                    &#xa;                    &#xa;                    &#xa;                    
                    <mxGeometry x="510" y="277" width="170" height="50" as="geometry"/>
                    &#xa;                    &#xa;                &#xa;                
                </mxCell>
                &#xa;                &#xa;                &#xa;                
                <mxCell id="e-B5iaQcXE6NJZ_y4BPK-4" value="Retrieve all active orders for the given user making the request" style="rounded=0;whiteSpace=wrap;html=1;fontSize=13;align=center;movable=0;resizable=0;rotatable=0;deletable=0;editable=0;connectable=0;" parent="23jr6QPACW3JQ0JePleg-1" vertex="1">
                    &#xa;                    &#xa;                    &#xa;                    
                    <mxGeometry x="690" y="277" width="190" height="50" as="geometry"/>
                    &#xa;                    &#xa;                &#xa;                
                </mxCell>
                &#xa;                &#xa;                &#xa;                
                <mxCell id="e-B5iaQcXE6NJZ_y4BPK-5" value="Method" style="rounded=0;whiteSpace=wrap;html=1;fontSize=14;align=center;fillColor=#d5e8d4;strokeColor=#82b366;fontColor=#000000;movable=0;resizable=0;rotatable=0;deletable=0;editable=0;connectable=0;" parent="23jr6QPACW3JQ0JePleg-1" vertex="1">
                    &#xa;                    &#xa;                    &#xa;                    
                    <mxGeometry x="390" y="250" width="110" height="27" as="geometry"/>
                    &#xa;                    &#xa;                &#xa;                
                </mxCell>
                &#xa;                &#xa;                &#xa;                
                <mxCell id="e-B5iaQcXE6NJZ_y4BPK-6" value="Route" style="rounded=0;whiteSpace=wrap;html=1;fontSize=14;align=center;fillColor=#d5e8d4;strokeColor=#82b366;fontColor=#000000;movable=0;resizable=0;rotatable=0;deletable=0;editable=0;connectable=0;" parent="23jr6QPACW3JQ0JePleg-1" vertex="1">
                    &#xa;                    &#xa;                    &#xa;                    
                    <mxGeometry x="220" y="250" width="160" height="27" as="geometry"/>
                    &#xa;                    &#xa;                &#xa;                
                </mxCell>
                &#xa;                &#xa;                &#xa;                
                <mxCell id="e-B5iaQcXE6NJZ_y4BPK-7" value="Body" style="rounded=0;whiteSpace=wrap;html=1;fontSize=14;align=center;fillColor=#d5e8d4;strokeColor=#82b366;fontColor=#000000;movable=0;resizable=0;rotatable=0;deletable=0;editable=0;connectable=0;" parent="23jr6QPACW3JQ0JePleg-1" vertex="1">
                    &#xa;                    &#xa;                    &#xa;                    
                    <mxGeometry x="510" y="250" width="170" height="27" as="geometry"/>
                    &#xa;                    &#xa;                &#xa;                
                </mxCell>
                &#xa;                &#xa;                &#xa;                
                <mxCell id="e-B5iaQcXE6NJZ_y4BPK-8" value="Purpose" style="rounded=0;whiteSpace=wrap;html=1;fontSize=14;align=center;fillColor=#d5e8d4;strokeColor=#82b366;fontColor=#000000;movable=0;resizable=0;rotatable=0;deletable=0;editable=0;connectable=0;" parent="23jr6QPACW3JQ0JePleg-1" vertex="1">
                    &#xa;                    &#xa;                    &#xa;                    
                    <mxGeometry x="690" y="250" width="190" height="27" as="geometry"/>
                    &#xa;                    &#xa;                &#xa;                
                </mxCell>
                &#xa;                &#xa;                &#xa;                
                <mxCell id="e-B5iaQcXE6NJZ_y4BPK-9" value="GET" style="rounded=0;whiteSpace=wrap;html=1;fontSize=17;align=center;movable=0;resizable=0;rotatable=0;deletable=0;editable=0;connectable=0;" parent="23jr6QPACW3JQ0JePleg-1" vertex="1">
                    &#xa;                    &#xa;                    &#xa;                    
                    <mxGeometry x="390" y="327" width="110" height="50" as="geometry"/>
                    &#xa;                    &#xa;                &#xa;                
                </mxCell>
                &#xa;                &#xa;                &#xa;                
                <mxCell id="e-B5iaQcXE6NJZ_y4BPK-10" value="/api/orders/:id" style="rounded=0;whiteSpace=wrap;html=1;fontSize=15;align=center;movable=0;resizable=0;rotatable=0;deletable=0;editable=0;connectable=0;" parent="23jr6QPACW3JQ0JePleg-1" vertex="1">
                    &#xa;                    &#xa;                    &#xa;                    
                    <mxGeometry x="220" y="327" width="160" height="50" as="geometry"/>
                    &#xa;                    &#xa;                &#xa;                
                </mxCell>
                &#xa;                &#xa;                &#xa;                
                <mxCell id="e-B5iaQcXE6NJZ_y4BPK-11" value="-" style="rounded=0;whiteSpace=wrap;html=1;fontSize=11;align=center;movable=0;resizable=0;rotatable=0;deletable=0;editable=0;connectable=0;" parent="23jr6QPACW3JQ0JePleg-1" vertex="1">
                    &#xa;                    &#xa;                    &#xa;                    
                    <mxGeometry x="510" y="327" width="170" height="50" as="geometry"/>
                    &#xa;                    &#xa;                &#xa;                
                </mxCell>
                &#xa;                &#xa;                &#xa;                
                <mxCell id="e-B5iaQcXE6NJZ_y4BPK-12" value="POST" style="rounded=0;whiteSpace=wrap;html=1;fontSize=17;align=center;movable=0;resizable=0;rotatable=0;deletable=0;editable=0;connectable=0;" parent="23jr6QPACW3JQ0JePleg-1" vertex="1">
                    &#xa;                    &#xa;                    &#xa;                    
                    <mxGeometry x="390" y="377" width="110" height="50" as="geometry"/>
                    &#xa;                    &#xa;                &#xa;                
                </mxCell>
                &#xa;                &#xa;                &#xa;                
                <mxCell id="e-B5iaQcXE6NJZ_y4BPK-13" value="/api/orders" style="rounded=0;whiteSpace=wrap;html=1;fontSize=15;align=center;movable=0;resizable=0;rotatable=0;deletable=0;editable=0;connectable=0;" parent="23jr6QPACW3JQ0JePleg-1" vertex="1">
                    &#xa;                    &#xa;                    &#xa;                    
                    <mxGeometry x="220" y="377" width="160" height="50" as="geometry"/>
                    &#xa;                    &#xa;                &#xa;                
                </mxCell>
                &#xa;                &#xa;                &#xa;                
                <mxCell id="e-B5iaQcXE6NJZ_y4BPK-14" value="{ ticketId: string }" style="rounded=0;whiteSpace=wrap;html=1;fontSize=11;align=center;movable=0;resizable=0;rotatable=0;deletable=0;editable=0;connectable=0;" parent="23jr6QPACW3JQ0JePleg-1" vertex="1">
                    &#xa;                    &#xa;                    &#xa;                    
                    <mxGeometry x="510" y="377" width="170" height="50" as="geometry"/>
                    &#xa;                    &#xa;                &#xa;                
                </mxCell>
                &#xa;                &#xa;                &#xa;                
                <mxCell id="e-B5iaQcXE6NJZ_y4BPK-15" value="DELETE" style="rounded=0;whiteSpace=wrap;html=1;fontSize=17;align=center;movable=0;resizable=0;rotatable=0;deletable=0;editable=0;connectable=0;" parent="23jr6QPACW3JQ0JePleg-1" vertex="1">
                    &#xa;                    &#xa;                    &#xa;                    
                    <mxGeometry x="390" y="427" width="110" height="50" as="geometry"/>
                    &#xa;                    &#xa;                &#xa;                
                </mxCell>
                &#xa;                &#xa;                &#xa;                
                <mxCell id="e-B5iaQcXE6NJZ_y4BPK-16" value="/api/orders/:id" style="rounded=0;whiteSpace=wrap;html=1;fontSize=15;align=center;movable=0;resizable=0;rotatable=0;deletable=0;editable=0;connectable=0;" parent="23jr6QPACW3JQ0JePleg-1" vertex="1">
                    &#xa;                    &#xa;                    &#xa;                    
                    <mxGeometry x="220" y="427" width="160" height="50" as="geometry"/>
                    &#xa;                    &#xa;                &#xa;                
                </mxCell>
                &#xa;                &#xa;                &#xa;                
                <mxCell id="e-B5iaQcXE6NJZ_y4BPK-17" value="-" style="rounded=0;whiteSpace=wrap;html=1;fontSize=11;align=center;movable=0;resizable=0;rotatable=0;deletable=0;editable=0;connectable=0;" parent="23jr6QPACW3JQ0JePleg-1" vertex="1">
                    &#xa;                    &#xa;                    &#xa;                    
                    <mxGeometry x="510" y="427" width="170" height="50" as="geometry"/>
                    &#xa;                    &#xa;                &#xa;                
                </mxCell>
                &#xa;                &#xa;                &#xa;                
                <mxCell id="e-B5iaQcXE6NJZ_y4BPK-18" value="Get details about a specific order" style="rounded=0;whiteSpace=wrap;html=1;fontSize=13;align=center;movable=0;resizable=0;rotatable=0;deletable=0;editable=0;connectable=0;" parent="23jr6QPACW3JQ0JePleg-1" vertex="1">
                    &#xa;                    &#xa;                    &#xa;                    
                    <mxGeometry x="690" y="327" width="190" height="50" as="geometry"/>
                    &#xa;                    &#xa;                &#xa;                
                </mxCell>
                &#xa;                &#xa;                &#xa;                
                <mxCell id="e-B5iaQcXE6NJZ_y4BPK-19" value="Create an order to purchase the specified ticket" style="rounded=0;whiteSpace=wrap;html=1;fontSize=13;align=center;movable=0;resizable=0;rotatable=0;deletable=0;editable=0;connectable=0;" parent="23jr6QPACW3JQ0JePleg-1" vertex="1">
                    &#xa;                    &#xa;                    &#xa;                    
                    <mxGeometry x="690" y="377" width="190" height="50" as="geometry"/>
                    &#xa;                    &#xa;                &#xa;                
                </mxCell>
                &#xa;                &#xa;                &#xa;                
                <mxCell id="e-B5iaQcXE6NJZ_y4BPK-20" value="Cancel the order" style="rounded=0;whiteSpace=wrap;html=1;fontSize=13;align=center;movable=0;resizable=0;rotatable=0;deletable=0;editable=0;connectable=0;" parent="23jr6QPACW3JQ0JePleg-1" vertex="1">
                    &#xa;                    &#xa;                    &#xa;                    
                    <mxGeometry x="690" y="427" width="190" height="50" as="geometry"/>
                    &#xa;                    &#xa;                &#xa;                
                </mxCell>
                &#xa;                &#xa;            &#xa;            
            </root>
            &#xa;            &#xa;        &#xa;        
        </mxGraphModel>
        &#xa;        &#xa;    &#xa;    
    </diagram>
    <diagram id="On-oJY6kz6BDMZYgi8Uw" name="Tickets and Orders">
        &#xa;        
        <mxGraphModel dx="1532" dy="1152" grid="1" gridSize="10" guides="1" tooltips="1" connect="1" arrows="1" fold="1" page="1" pageScale="1" pageWidth="1100" pageHeight="850" math="0" shadow="0">
            &#xa;            
            <root>
                &#xa;                
                <mxCell id="R-2DTJTsDT6AYSiy8sSG-0"/>
                &#xa;                
                <mxCell id="R-2DTJTsDT6AYSiy8sSG-1" parent="R-2DTJTsDT6AYSiy8sSG-0"/>
                &#xa;                
                <mxCell id="R-2DTJTsDT6AYSiy8sSG-43" value="" style="group;movable=0;resizable=0;rotatable=0;deletable=0;editable=0;connectable=0;" parent="R-2DTJTsDT6AYSiy8sSG-1" vertex="1" connectable="0">
                    &#xa;                    
                    <mxGeometry x="70" y="240" width="970" height="370" as="geometry"/>
                    &#xa;                
                </mxCell>
                &#xa;                
                <mxCell id="R-2DTJTsDT6AYSiy8sSG-2" value="Tickets Service" style="rounded=0;whiteSpace=wrap;html=1;fillColor=#f5f5f5;strokeColor=#666666;fontColor=#333333;fontSize=20;movable=0;resizable=0;rotatable=0;deletable=0;editable=0;connectable=0;" parent="R-2DTJTsDT6AYSiy8sSG-43" vertex="1">
                    &#xa;                    
                    <mxGeometry width="265.59523809523813" height="54.81481481481482" as="geometry"/>
                    &#xa;                
                </mxCell>
                &#xa;                
                <mxCell id="R-2DTJTsDT6AYSiy8sSG-3" value="Orders Service" style="rounded=0;whiteSpace=wrap;html=1;fillColor=#f5f5f5;strokeColor=#666666;fontColor=#333333;fontSize=20;movable=0;resizable=0;rotatable=0;deletable=0;editable=0;connectable=0;" parent="R-2DTJTsDT6AYSiy8sSG-43" vertex="1">
                    &#xa;                    
                    <mxGeometry x="438.8095238095238" width="531.1904761904763" height="54.81481481481482" as="geometry"/>
                    &#xa;                
                </mxCell>
                &#xa;                
                <mxCell id="R-2DTJTsDT6AYSiy8sSG-4" style="edgeStyle=orthogonalEdgeStyle;rounded=0;orthogonalLoop=1;jettySize=auto;html=1;exitX=1;exitY=0.25;exitDx=0;exitDy=0;fontSize=9;fontColor=#000000;movable=0;resizable=0;rotatable=0;deletable=0;editable=0;connectable=0;" parent="R-2DTJTsDT6AYSiy8sSG-43" source="R-2DTJTsDT6AYSiy8sSG-6" edge="1">
                    &#xa;                    
                    <mxGeometry relative="1" as="geometry">
                        &#xa;                        
                        <mxPoint x="438.8095238095238" y="133.79494128274632" as="targetPoint"/>
                        &#xa;                    
                    </mxGeometry>
                    &#xa;                
                </mxCell>
                &#xa;                
                <mxCell id="R-2DTJTsDT6AYSiy8sSG-5" style="edgeStyle=orthogonalEdgeStyle;rounded=0;orthogonalLoop=1;jettySize=auto;html=1;exitX=1;exitY=0.75;exitDx=0;exitDy=0;fontSize=9;movable=0;resizable=0;rotatable=0;deletable=0;editable=0;connectable=0;" parent="R-2DTJTsDT6AYSiy8sSG-43" source="R-2DTJTsDT6AYSiy8sSG-6" edge="1">
                    &#xa;                    
                    <mxGeometry relative="1" as="geometry">
                        &#xa;                        
                        <mxPoint x="438.8095238095238" y="290.88617886178895" as="targetPoint"/>
                        &#xa;                    
                    </mxGeometry>
                    &#xa;                
                </mxCell>
                &#xa;                
                <mxCell id="R-2DTJTsDT6AYSiy8sSG-6" value="" style="rounded=0;whiteSpace=wrap;html=1;fillColor=#f5f5f5;strokeColor=#666666;fontColor=#333333;fontSize=20;movable=0;resizable=0;rotatable=0;deletable=0;editable=0;connectable=0;" parent="R-2DTJTsDT6AYSiy8sSG-43" vertex="1">
                    &#xa;                    
                    <mxGeometry y="54.81481481481482" width="265.59523809523813" height="315.1851851851852" as="geometry"/>
                    &#xa;                
                </mxCell>
                &#xa;                
                <mxCell id="R-2DTJTsDT6AYSiy8sSG-7" value="" style="rounded=0;whiteSpace=wrap;html=1;fillColor=#f5f5f5;strokeColor=#666666;fontColor=#333333;fontSize=20;movable=0;resizable=0;rotatable=0;deletable=0;editable=0;connectable=0;" parent="R-2DTJTsDT6AYSiy8sSG-43" vertex="1">
                    &#xa;                    
                    <mxGeometry x="438.8095238095238" y="54.81481481481482" width="531.1904761904763" height="315.1851851851852" as="geometry"/>
                    &#xa;                
                </mxCell>
                &#xa;                
                <mxCell id="R-2DTJTsDT6AYSiy8sSG-8" value="Ticket" style="rounded=0;whiteSpace=wrap;html=1;fontSize=20;fillColor=#dae8fc;strokeColor=#6c8ebf;fontColor=#000000;movable=0;resizable=0;rotatable=0;deletable=0;editable=0;connectable=0;" parent="R-2DTJTsDT6AYSiy8sSG-43" vertex="1">
                    &#xa;                    
                    <mxGeometry x="23.095238095238095" y="68.51851851851852" width="219.4047619047619" height="41.111111111111114" as="geometry"/>
                    &#xa;                
                </mxCell>
                &#xa;                
                <mxCell id="R-2DTJTsDT6AYSiy8sSG-9" value="Prop" style="rounded=0;whiteSpace=wrap;html=1;fontSize=10;fillColor=#d5e8d4;strokeColor=#82b366;fontStyle=2;fontColor=#000000;movable=0;resizable=0;rotatable=0;deletable=0;editable=0;connectable=0;" parent="R-2DTJTsDT6AYSiy8sSG-43" vertex="1">
                    &#xa;                    
                    <mxGeometry x="23.095238095238095" y="109.62962962962963" width="109.70238095238095" height="27.40740740740741" as="geometry"/>
                    &#xa;                
                </mxCell>
                &#xa;                
                <mxCell id="R-2DTJTsDT6AYSiy8sSG-10" value="Type" style="rounded=0;whiteSpace=wrap;html=1;fontSize=10;fillColor=#d5e8d4;strokeColor=#82b366;fontStyle=2;fontColor=#000000;movable=0;resizable=0;rotatable=0;deletable=0;editable=0;connectable=0;" parent="R-2DTJTsDT6AYSiy8sSG-43" vertex="1">
                    &#xa;                    
                    <mxGeometry x="132.79761904761907" y="109.62962962962963" width="109.70238095238095" height="27.40740740740741" as="geometry"/>
                    &#xa;                
                </mxCell>
                &#xa;                
                <mxCell id="R-2DTJTsDT6AYSiy8sSG-11" value="title" style="rounded=0;whiteSpace=wrap;html=1;fontSize=14;fontStyle=0;movable=0;resizable=0;rotatable=0;deletable=0;editable=0;connectable=0;" parent="R-2DTJTsDT6AYSiy8sSG-43" vertex="1">
                    &#xa;                    
                    <mxGeometry x="23.095238095238095" y="137.03703703703704" width="109.70238095238095" height="54.81481481481482" as="geometry"/>
                    &#xa;                
                </mxCell>
                &#xa;                
                <mxCell id="R-2DTJTsDT6AYSiy8sSG-12" value="Title of event this ticket is for" style="rounded=0;whiteSpace=wrap;html=1;fontSize=10;fontStyle=0;movable=0;resizable=0;rotatable=0;deletable=0;editable=0;connectable=0;" parent="R-2DTJTsDT6AYSiy8sSG-43" vertex="1">
                    &#xa;                    
                    <mxGeometry x="132.79761904761907" y="137.03703703703704" width="109.70238095238095" height="54.81481481481482" as="geometry"/>
                    &#xa;                
                </mxCell>
                &#xa;                
                <mxCell id="R-2DTJTsDT6AYSiy8sSG-13" value="price" style="rounded=0;whiteSpace=wrap;html=1;fontSize=14;fontStyle=0;movable=0;resizable=0;rotatable=0;deletable=0;editable=0;connectable=0;" parent="R-2DTJTsDT6AYSiy8sSG-43" vertex="1">
                    &#xa;                    
                    <mxGeometry x="23.095238095238095" y="191.85185185185188" width="109.70238095238095" height="54.81481481481482" as="geometry"/>
                    &#xa;                
                </mxCell>
                &#xa;                
                <mxCell id="R-2DTJTsDT6AYSiy8sSG-14" value="Price of the ticket in USD" style="rounded=0;whiteSpace=wrap;html=1;fontSize=10;fontStyle=0;movable=0;resizable=0;rotatable=0;deletable=0;editable=0;connectable=0;" parent="R-2DTJTsDT6AYSiy8sSG-43" vertex="1">
                    &#xa;                    
                    <mxGeometry x="132.79761904761907" y="191.85185185185188" width="109.70238095238095" height="54.81481481481482" as="geometry"/>
                    &#xa;                
                </mxCell>
                &#xa;                
                <mxCell id="R-2DTJTsDT6AYSiy8sSG-15" value="userId" style="rounded=0;whiteSpace=wrap;html=1;fontSize=14;fontStyle=0;movable=0;resizable=0;rotatable=0;deletable=0;editable=0;connectable=0;" parent="R-2DTJTsDT6AYSiy8sSG-43" vertex="1">
                    &#xa;                    
                    <mxGeometry x="23.095238095238095" y="246.66666666666669" width="109.70238095238095" height="54.81481481481482" as="geometry"/>
                    &#xa;                
                </mxCell>
                &#xa;                
                <mxCell id="R-2DTJTsDT6AYSiy8sSG-16" value="ID of the user who is selling this ticket" style="rounded=0;whiteSpace=wrap;html=1;fontSize=10;fontStyle=0;movable=0;resizable=0;rotatable=0;deletable=0;editable=0;connectable=0;" parent="R-2DTJTsDT6AYSiy8sSG-43" vertex="1">
                    &#xa;                    
                    <mxGeometry x="132.79761904761907" y="246.66666666666669" width="109.70238095238095" height="54.81481481481482" as="geometry"/>
                    &#xa;                
                </mxCell>
                &#xa;                
                <mxCell id="R-2DTJTsDT6AYSiy8sSG-17" value="Order" style="rounded=0;whiteSpace=wrap;html=1;fontSize=20;fillColor=#dae8fc;strokeColor=#6c8ebf;fontColor=#000000;movable=0;resizable=0;rotatable=0;deletable=0;editable=0;connectable=0;" parent="R-2DTJTsDT6AYSiy8sSG-43" vertex="1">
                    &#xa;                    
                    <mxGeometry x="739.047619047619" y="68.51851851851852" width="219.4047619047619" height="41.111111111111114" as="geometry"/>
                    &#xa;                
                </mxCell>
                &#xa;                
                <mxCell id="R-2DTJTsDT6AYSiy8sSG-18" value="Prop" style="rounded=0;whiteSpace=wrap;html=1;fontSize=10;fillColor=#d5e8d4;strokeColor=#82b366;fontStyle=2;fontColor=#000000;movable=0;resizable=0;rotatable=0;deletable=0;editable=0;connectable=0;" parent="R-2DTJTsDT6AYSiy8sSG-43" vertex="1">
                    &#xa;                    
                    <mxGeometry x="739.047619047619" y="109.62962962962963" width="109.70238095238095" height="27.40740740740741" as="geometry"/>
                    &#xa;                
                </mxCell>
                &#xa;                
                <mxCell id="R-2DTJTsDT6AYSiy8sSG-19" value="Type" style="rounded=0;whiteSpace=wrap;html=1;fontSize=10;fillColor=#d5e8d4;strokeColor=#82b366;fontStyle=2;fontColor=#000000;movable=0;resizable=0;rotatable=0;deletable=0;editable=0;connectable=0;" parent="R-2DTJTsDT6AYSiy8sSG-43" vertex="1">
                    &#xa;                    
                    <mxGeometry x="848.75" y="109.62962962962963" width="109.70238095238095" height="27.40740740740741" as="geometry"/>
                    &#xa;                
                </mxCell>
                &#xa;                
                <mxCell id="R-2DTJTsDT6AYSiy8sSG-20" value="userId" style="rounded=0;whiteSpace=wrap;html=1;fontSize=14;fontStyle=0;movable=0;resizable=0;rotatable=0;deletable=0;editable=0;connectable=0;" parent="R-2DTJTsDT6AYSiy8sSG-43" vertex="1">
                    &#xa;                    
                    <mxGeometry x="739.047619047619" y="137.03703703703704" width="109.70238095238095" height="54.81481481481482" as="geometry"/>
                    &#xa;                
                </mxCell>
                &#xa;                
                <mxCell id="R-2DTJTsDT6AYSiy8sSG-21" value="User who created this order and is trying to buy a ticket" style="rounded=0;whiteSpace=wrap;html=1;fontSize=10;fontStyle=0;movable=0;resizable=0;rotatable=0;deletable=0;editable=0;connectable=0;" parent="R-2DTJTsDT6AYSiy8sSG-43" vertex="1">
                    &#xa;                    
                    <mxGeometry x="848.75" y="137.03703703703704" width="109.70238095238095" height="54.81481481481482" as="geometry"/>
                    &#xa;                
                </mxCell>
                &#xa;                
                <mxCell id="R-2DTJTsDT6AYSiy8sSG-22" value="status" style="rounded=0;whiteSpace=wrap;html=1;fontSize=14;fontStyle=0;movable=0;resizable=0;rotatable=0;deletable=0;editable=0;connectable=0;" parent="R-2DTJTsDT6AYSiy8sSG-43" vertex="1">
                    &#xa;                    
                    <mxGeometry x="739.047619047619" y="191.85185185185188" width="109.70238095238095" height="54.81481481481482" as="geometry"/>
                    &#xa;                
                </mxCell>
                &#xa;                
                <mxCell id="R-2DTJTsDT6AYSiy8sSG-23" value="Whether the order is expired, paid, or pending" style="rounded=0;whiteSpace=wrap;html=1;fontSize=10;fontStyle=0;movable=0;resizable=0;rotatable=0;deletable=0;editable=0;connectable=0;" parent="R-2DTJTsDT6AYSiy8sSG-43" vertex="1">
                    &#xa;                    
                    <mxGeometry x="848.75" y="191.85185185185188" width="109.70238095238095" height="54.81481481481482" as="geometry"/>
                    &#xa;                
                </mxCell>
                &#xa;                
                <mxCell id="R-2DTJTsDT6AYSiy8sSG-24" value="expiresAt" style="rounded=0;whiteSpace=wrap;html=1;fontSize=14;fontStyle=0;movable=0;resizable=0;rotatable=0;deletable=0;editable=0;connectable=0;" parent="R-2DTJTsDT6AYSiy8sSG-43" vertex="1">
                    &#xa;                    
                    <mxGeometry x="739.047619047619" y="246.66666666666669" width="109.70238095238095" height="54.81481481481482" as="geometry"/>
                    &#xa;                
                </mxCell>
                &#xa;                
                <mxCell id="R-2DTJTsDT6AYSiy8sSG-25" value="Time at which this order expires (user has 15 mins to pay)" style="rounded=0;whiteSpace=wrap;html=1;fontSize=10;fontStyle=0;movable=0;resizable=0;rotatable=0;deletable=0;editable=0;connectable=0;" parent="R-2DTJTsDT6AYSiy8sSG-43" vertex="1">
                    &#xa;                    
                    <mxGeometry x="848.75" y="246.66666666666669" width="109.70238095238095" height="54.81481481481482" as="geometry"/>
                    &#xa;                
                </mxCell>
                &#xa;                
                <mxCell id="R-2DTJTsDT6AYSiy8sSG-27" value="ticketId" style="rounded=0;whiteSpace=wrap;html=1;fontSize=14;fontStyle=0;movable=0;resizable=0;rotatable=0;deletable=0;editable=0;connectable=0;" parent="R-2DTJTsDT6AYSiy8sSG-43" vertex="1">
                    &#xa;                    
                    <mxGeometry x="739.047619047619" y="301.4814814814815" width="109.70238095238095" height="54.81481481481482" as="geometry"/>
                    &#xa;                
                </mxCell>
                &#xa;                
                <mxCell id="R-2DTJTsDT6AYSiy8sSG-28" value="ID of the ticket the user is trying to buy" style="rounded=0;whiteSpace=wrap;html=1;fontSize=10;fontStyle=0;movable=0;resizable=0;rotatable=0;deletable=0;editable=0;connectable=0;" parent="R-2DTJTsDT6AYSiy8sSG-43" vertex="1">
                    &#xa;                    
                    <mxGeometry x="848.75" y="301.4814814814815" width="109.70238095238095" height="54.81481481481482" as="geometry"/>
                    &#xa;                
                </mxCell>
                &#xa;                
                <mxCell id="R-2DTJTsDT6AYSiy8sSG-29" value="Ticket" style="rounded=0;whiteSpace=wrap;html=1;fontSize=20;fillColor=#dae8fc;strokeColor=#6c8ebf;fontColor=#000000;movable=0;resizable=0;rotatable=0;deletable=0;editable=0;connectable=0;" parent="R-2DTJTsDT6AYSiy8sSG-43" vertex="1">
                    &#xa;                    
                    <mxGeometry x="450.3571428571429" y="68.51851851851852" width="219.4047619047619" height="41.111111111111114" as="geometry"/>
                    &#xa;                
                </mxCell>
                &#xa;                
                <mxCell id="R-2DTJTsDT6AYSiy8sSG-26" style="edgeStyle=orthogonalEdgeStyle;rounded=0;orthogonalLoop=1;jettySize=auto;html=1;exitX=0;exitY=0.5;exitDx=0;exitDy=0;entryX=1;entryY=0.5;entryDx=0;entryDy=0;fontSize=9;movable=0;resizable=0;rotatable=0;deletable=0;editable=0;connectable=0;" parent="R-2DTJTsDT6AYSiy8sSG-43" source="R-2DTJTsDT6AYSiy8sSG-27" target="R-2DTJTsDT6AYSiy8sSG-29" edge="1">
                    &#xa;                    
                    <mxGeometry relative="1" as="geometry"/>
                    &#xa;                
                </mxCell>
                &#xa;                
                <mxCell id="R-2DTJTsDT6AYSiy8sSG-30" value="Prop" style="rounded=0;whiteSpace=wrap;html=1;fontSize=10;fillColor=#d5e8d4;strokeColor=#82b366;fontStyle=2;fontColor=#000000;movable=0;resizable=0;rotatable=0;deletable=0;editable=0;connectable=0;" parent="R-2DTJTsDT6AYSiy8sSG-43" vertex="1">
                    &#xa;                    
                    <mxGeometry x="450.3571428571429" y="109.62962962962963" width="109.70238095238095" height="27.40740740740741" as="geometry"/>
                    &#xa;                
                </mxCell>
                &#xa;                
                <mxCell id="R-2DTJTsDT6AYSiy8sSG-31" value="Type" style="rounded=0;whiteSpace=wrap;html=1;fontSize=10;fillColor=#d5e8d4;strokeColor=#82b366;fontStyle=2;fontColor=#000000;movable=0;resizable=0;rotatable=0;deletable=0;editable=0;connectable=0;" parent="R-2DTJTsDT6AYSiy8sSG-43" vertex="1">
                    &#xa;                    
                    <mxGeometry x="560.0595238095239" y="109.62962962962963" width="109.70238095238095" height="27.40740740740741" as="geometry"/>
                    &#xa;                
                </mxCell>
                &#xa;                
                <mxCell id="R-2DTJTsDT6AYSiy8sSG-32" value="&lt;b style=&quot;font-size: 15px;&quot;&gt;Event&lt;/b&gt;&lt;br style=&quot;font-size: 15px;&quot;&gt;&lt;b style=&quot;font-size: 15px;&quot;&gt;ticket:created&lt;/b&gt;" style="rounded=0;whiteSpace=wrap;html=1;fillColor=#f8cecc;strokeColor=#b85450;fontSize=15;fontColor=#000000;movable=0;resizable=0;rotatable=0;deletable=0;editable=0;connectable=0;" parent="R-2DTJTsDT6AYSiy8sSG-43" vertex="1">
                    &#xa;                    
                    <mxGeometry x="288.6904761904762" y="65.77777777777779" width="127.02380952380953" height="68.51851851851852" as="geometry"/>
                    &#xa;                
                </mxCell>
                &#xa;                
                <mxCell id="R-2DTJTsDT6AYSiy8sSG-33" value="&lt;b style=&quot;font-size: 15px;&quot;&gt;Event&lt;/b&gt;&lt;br style=&quot;font-size: 15px;&quot;&gt;&lt;b style=&quot;font-size: 15px;&quot;&gt;ticket:updated&lt;/b&gt;" style="rounded=0;whiteSpace=wrap;html=1;fillColor=#f8cecc;strokeColor=#b85450;fontSize=15;fontColor=#000000;movable=0;resizable=0;rotatable=0;deletable=0;editable=0;connectable=0;" parent="R-2DTJTsDT6AYSiy8sSG-43" vertex="1">
                    &#xa;                    
                    <mxGeometry x="288.6904761904762" y="290.51851851851853" width="127.02380952380953" height="68.51851851851852" as="geometry"/>
                    &#xa;                
                </mxCell>
                &#xa;                
                <mxCell id="R-2DTJTsDT6AYSiy8sSG-34" value="version" style="rounded=0;whiteSpace=wrap;html=1;fontSize=14;fontStyle=0;movable=0;resizable=0;rotatable=0;deletable=0;editable=0;connectable=0;" parent="R-2DTJTsDT6AYSiy8sSG-43" vertex="1">
                    &#xa;                    
                    <mxGeometry x="23.095238095238095" y="301.4814814814815" width="109.70238095238095" height="54.81481481481482" as="geometry"/>
                    &#xa;                
                </mxCell>
                &#xa;                
                <mxCell id="R-2DTJTsDT6AYSiy8sSG-35" value="Version of this ticket.&amp;nbsp; Increment every time this ticket is changed" style="rounded=0;whiteSpace=wrap;html=1;fontSize=9;fontStyle=0;movable=0;resizable=0;rotatable=0;deletable=0;editable=0;connectable=0;" parent="R-2DTJTsDT6AYSiy8sSG-43" vertex="1">
                    &#xa;                    
                    <mxGeometry x="132.79761904761907" y="301.4814814814815" width="109.70238095238095" height="54.81481481481482" as="geometry"/>
                    &#xa;                
                </mxCell>
                &#xa;                
                <mxCell id="R-2DTJTsDT6AYSiy8sSG-36" value="title" style="rounded=0;whiteSpace=wrap;html=1;fontSize=14;fontStyle=0;movable=0;resizable=0;rotatable=0;deletable=0;editable=0;connectable=0;" parent="R-2DTJTsDT6AYSiy8sSG-43" vertex="1">
                    &#xa;                    
                    <mxGeometry x="450.3571428571429" y="137.03703703703704" width="109.70238095238095" height="54.81481481481482" as="geometry"/>
                    &#xa;                
                </mxCell>
                &#xa;                
                <mxCell id="R-2DTJTsDT6AYSiy8sSG-37" value="Title of event this ticket is for" style="rounded=0;whiteSpace=wrap;html=1;fontSize=10;fontStyle=0;movable=0;resizable=0;rotatable=0;deletable=0;editable=0;connectable=0;" parent="R-2DTJTsDT6AYSiy8sSG-43" vertex="1">
                    &#xa;                    
                    <mxGeometry x="560.0595238095239" y="137.03703703703704" width="109.70238095238095" height="54.81481481481482" as="geometry"/>
                    &#xa;                
                </mxCell>
                &#xa;                
                <mxCell id="R-2DTJTsDT6AYSiy8sSG-38" value="price" style="rounded=0;whiteSpace=wrap;html=1;fontSize=14;fontStyle=0;movable=0;resizable=0;rotatable=0;deletable=0;editable=0;connectable=0;" parent="R-2DTJTsDT6AYSiy8sSG-43" vertex="1">
                    &#xa;                    
                    <mxGeometry x="450.3571428571429" y="191.85185185185188" width="109.70238095238095" height="54.81481481481482" as="geometry"/>
                    &#xa;                
                </mxCell>
                &#xa;                
                <mxCell id="R-2DTJTsDT6AYSiy8sSG-39" value="Price of the ticket in USD" style="rounded=0;whiteSpace=wrap;html=1;fontSize=10;fontStyle=0;movable=0;resizable=0;rotatable=0;deletable=0;editable=0;connectable=0;" parent="R-2DTJTsDT6AYSiy8sSG-43" vertex="1">
                    &#xa;                    
                    <mxGeometry x="560.0595238095239" y="191.85185185185188" width="109.70238095238095" height="54.81481481481482" as="geometry"/>
                    &#xa;                
                </mxCell>
                &#xa;                
                <mxCell id="R-2DTJTsDT6AYSiy8sSG-40" value="version" style="rounded=0;whiteSpace=wrap;html=1;fontSize=14;fontStyle=0;movable=0;resizable=0;rotatable=0;deletable=0;editable=0;connectable=0;" parent="R-2DTJTsDT6AYSiy8sSG-43" vertex="1">
                    &#xa;                    
                    <mxGeometry x="450.3571428571429" y="246.66666666666669" width="109.70238095238095" height="54.81481481481482" as="geometry"/>
                    &#xa;                
                </mxCell>
                &#xa;                
                <mxCell id="R-2DTJTsDT6AYSiy8sSG-41" value="Ensures that we don't process events twice or out of order" style="rounded=0;whiteSpace=wrap;html=1;fontSize=9;fontStyle=0;movable=0;resizable=0;rotatable=0;deletable=0;editable=0;connectable=0;" parent="R-2DTJTsDT6AYSiy8sSG-43" vertex="1">
                    &#xa;                    
                    <mxGeometry x="560.0595238095239" y="246.66666666666669" width="109.70238095238095" height="54.81481481481482" as="geometry"/>
                    &#xa;                
                </mxCell>
                &#xa;                
                <mxCell id="R-2DTJTsDT6AYSiy8sSG-42" value="Prop" style="rounded=0;whiteSpace=wrap;html=1;fontSize=10;fillColor=#d5e8d4;strokeColor=#82b366;fontStyle=2;fontColor=#000000;movable=0;resizable=0;rotatable=0;deletable=0;editable=0;connectable=0;" parent="R-2DTJTsDT6AYSiy8sSG-43" vertex="1">
                    &#xa;                    
                    <mxGeometry x="23.095238095238095" y="109.62962962962963" width="109.70238095238095" height="27.40740740740741" as="geometry"/>
                    &#xa;                
                </mxCell>
                &#xa;            
            </root>
            &#xa;        
        </mxGraphModel>
        &#xa;    
    </diagram>
    <diagram id="NjIFaqkhgksH3p3pCREE" name="Events">
        <mxGraphModel dx="1532" dy="1152" grid="1" gridSize="10" guides="1" tooltips="1" connect="1" arrows="1" fold="1" page="1" pageScale="1" pageWidth="1100" pageHeight="850" math="0" shadow="0">
            <root>
                <mxCell id="vNvNnTvFDg2rq5lSiMrQ-0"/>
                <mxCell id="vNvNnTvFDg2rq5lSiMrQ-1" parent="vNvNnTvFDg2rq5lSiMrQ-0"/>
                <mxCell id="vNvNnTvFDg2rq5lSiMrQ-2" value="Tickets Service" style="rounded=0;whiteSpace=wrap;html=1;fontSize=19;fillColor=#f5f5f5;strokeColor=#666666;fontColor=#333333;fontStyle=1;movable=0;resizable=0;rotatable=0;deletable=0;editable=0;connectable=0;" vertex="1" parent="vNvNnTvFDg2rq5lSiMrQ-1">
                    <mxGeometry x="190" y="280" width="180" height="25" as="geometry"/>
                </mxCell>
                <mxCell id="vNvNnTvFDg2rq5lSiMrQ-3" style="edgeStyle=orthogonalEdgeStyle;rounded=0;orthogonalLoop=1;jettySize=auto;html=1;exitX=0.5;exitY=1;exitDx=0;exitDy=0;fontSize=19;fontColor=#000000;movable=0;resizable=0;rotatable=0;deletable=0;editable=0;connectable=0;" edge="1" parent="vNvNnTvFDg2rq5lSiMrQ-1" source="vNvNnTvFDg2rq5lSiMrQ-4" target="vNvNnTvFDg2rq5lSiMrQ-19">
                    <mxGeometry relative="1" as="geometry"/>
                </mxCell>
                <mxCell id="vNvNnTvFDg2rq5lSiMrQ-4" value="" style="rounded=0;whiteSpace=wrap;html=1;fontSize=22;fillColor=#f5f5f5;strokeColor=#666666;fontColor=#333333;fontStyle=1;movable=0;resizable=0;rotatable=0;deletable=0;editable=0;connectable=0;" vertex="1" parent="vNvNnTvFDg2rq5lSiMrQ-1">
                    <mxGeometry x="190" y="305" width="180" height="130" as="geometry"/>
                </mxCell>
                <mxCell id="vNvNnTvFDg2rq5lSiMrQ-5" value="Orders Service" style="rounded=0;whiteSpace=wrap;html=1;fontSize=19;fillColor=#f5f5f5;strokeColor=#666666;fontColor=#333333;fontStyle=1;movable=0;resizable=0;rotatable=0;deletable=0;editable=0;connectable=0;" vertex="1" parent="vNvNnTvFDg2rq5lSiMrQ-1">
                    <mxGeometry x="400" y="280" width="180" height="25" as="geometry"/>
                </mxCell>
                <mxCell id="vNvNnTvFDg2rq5lSiMrQ-6" style="edgeStyle=orthogonalEdgeStyle;rounded=0;orthogonalLoop=1;jettySize=auto;html=1;exitX=0.5;exitY=1;exitDx=0;exitDy=0;fontSize=17;fontColor=#000000;movable=0;resizable=0;rotatable=0;deletable=0;editable=0;connectable=0;" edge="1" parent="vNvNnTvFDg2rq5lSiMrQ-1" source="vNvNnTvFDg2rq5lSiMrQ-7" target="vNvNnTvFDg2rq5lSiMrQ-21">
                    <mxGeometry relative="1" as="geometry"/>
                </mxCell>
                <mxCell id="vNvNnTvFDg2rq5lSiMrQ-7" value="" style="rounded=0;whiteSpace=wrap;html=1;fontSize=22;fillColor=#f5f5f5;strokeColor=#666666;fontColor=#333333;fontStyle=1;movable=0;resizable=0;rotatable=0;deletable=0;editable=0;connectable=0;" vertex="1" parent="vNvNnTvFDg2rq5lSiMrQ-1">
                    <mxGeometry x="400" y="305" width="180" height="130" as="geometry"/>
                </mxCell>
                <mxCell id="vNvNnTvFDg2rq5lSiMrQ-8" value="Expiration Service" style="rounded=0;whiteSpace=wrap;html=1;fontSize=19;fillColor=#f5f5f5;strokeColor=#666666;fontColor=#333333;fontStyle=1;movable=0;resizable=0;rotatable=0;deletable=0;editable=0;connectable=0;" vertex="1" parent="vNvNnTvFDg2rq5lSiMrQ-1">
                    <mxGeometry x="830" y="280" width="180" height="25" as="geometry"/>
                </mxCell>
                <mxCell id="vNvNnTvFDg2rq5lSiMrQ-9" style="edgeStyle=orthogonalEdgeStyle;rounded=0;orthogonalLoop=1;jettySize=auto;html=1;exitX=0.5;exitY=1;exitDx=0;exitDy=0;entryX=0.5;entryY=0;entryDx=0;entryDy=0;fontSize=14;fontColor=#000000;movable=0;resizable=0;rotatable=0;deletable=0;editable=0;connectable=0;" edge="1" parent="vNvNnTvFDg2rq5lSiMrQ-1" source="vNvNnTvFDg2rq5lSiMrQ-10" target="vNvNnTvFDg2rq5lSiMrQ-25">
                    <mxGeometry relative="1" as="geometry"/>
                </mxCell>
                <mxCell id="vNvNnTvFDg2rq5lSiMrQ-10" value="" style="rounded=0;whiteSpace=wrap;html=1;fontSize=22;fillColor=#f5f5f5;strokeColor=#666666;fontColor=#333333;fontStyle=1;movable=0;resizable=0;rotatable=0;deletable=0;editable=0;connectable=0;" vertex="1" parent="vNvNnTvFDg2rq5lSiMrQ-1">
                    <mxGeometry x="830" y="305" width="180" height="130" as="geometry"/>
                </mxCell>
                <mxCell id="vNvNnTvFDg2rq5lSiMrQ-11" value="Payments Service" style="rounded=0;whiteSpace=wrap;html=1;fontSize=19;fillColor=#f5f5f5;strokeColor=#666666;fontColor=#333333;fontStyle=1;movable=0;resizable=0;rotatable=0;deletable=0;editable=0;connectable=0;" vertex="1" parent="vNvNnTvFDg2rq5lSiMrQ-1">
                    <mxGeometry x="620" y="280" width="180" height="25" as="geometry"/>
                </mxCell>
                <mxCell id="vNvNnTvFDg2rq5lSiMrQ-12" style="edgeStyle=orthogonalEdgeStyle;rounded=0;orthogonalLoop=1;jettySize=auto;html=1;exitX=0.5;exitY=1;exitDx=0;exitDy=0;entryX=0.5;entryY=0;entryDx=0;entryDy=0;fontSize=17;fontColor=#000000;movable=0;resizable=0;rotatable=0;deletable=0;editable=0;connectable=0;" edge="1" parent="vNvNnTvFDg2rq5lSiMrQ-1" source="vNvNnTvFDg2rq5lSiMrQ-13" target="vNvNnTvFDg2rq5lSiMrQ-23">
                    <mxGeometry relative="1" as="geometry"/>
                </mxCell>
                <mxCell id="vNvNnTvFDg2rq5lSiMrQ-13" value="" style="rounded=0;whiteSpace=wrap;html=1;fontSize=22;fillColor=#f5f5f5;strokeColor=#666666;fontColor=#333333;fontStyle=1;movable=0;resizable=0;rotatable=0;deletable=0;editable=0;connectable=0;" vertex="1" parent="vNvNnTvFDg2rq5lSiMrQ-1">
                    <mxGeometry x="620" y="305" width="180" height="130" as="geometry"/>
                </mxCell>
                <mxCell id="vNvNnTvFDg2rq5lSiMrQ-14" value="tickets" style="rounded=0;whiteSpace=wrap;html=1;fontSize=19;fillColor=#d5e8d4;strokeColor=#82b366;fontColor=#000000;movable=0;resizable=0;rotatable=0;deletable=0;editable=0;connectable=0;" vertex="1" parent="vNvNnTvFDg2rq5lSiMrQ-1">
                    <mxGeometry x="220" y="320" width="120" height="40" as="geometry"/>
                </mxCell>
                <mxCell id="vNvNnTvFDg2rq5lSiMrQ-15" value="orders" style="rounded=0;whiteSpace=wrap;html=1;fontSize=19;fillColor=#d5e8d4;strokeColor=#82b366;fontColor=#000000;movable=0;resizable=0;rotatable=0;deletable=0;editable=0;connectable=0;" vertex="1" parent="vNvNnTvFDg2rq5lSiMrQ-1">
                    <mxGeometry x="430" y="320" width="120" height="40" as="geometry"/>
                </mxCell>
                <mxCell id="vNvNnTvFDg2rq5lSiMrQ-16" value="tickets" style="rounded=0;whiteSpace=wrap;html=1;fontSize=19;fillColor=#e1d5e7;strokeColor=#9673a6;fontColor=#000000;movable=0;resizable=0;rotatable=0;deletable=0;editable=0;connectable=0;" vertex="1" parent="vNvNnTvFDg2rq5lSiMrQ-1">
                    <mxGeometry x="430" y="370" width="120" height="40" as="geometry"/>
                </mxCell>
                <mxCell id="vNvNnTvFDg2rq5lSiMrQ-17" value="charges" style="rounded=0;whiteSpace=wrap;html=1;fontSize=19;fillColor=#d5e8d4;strokeColor=#82b366;fontColor=#000000;movable=0;resizable=0;rotatable=0;deletable=0;editable=0;connectable=0;" vertex="1" parent="vNvNnTvFDg2rq5lSiMrQ-1">
                    <mxGeometry x="650" y="320" width="120" height="40" as="geometry"/>
                </mxCell>
                <mxCell id="vNvNnTvFDg2rq5lSiMrQ-18" value="orders" style="rounded=0;whiteSpace=wrap;html=1;fontSize=19;fillColor=#e1d5e7;strokeColor=#9673a6;fontColor=#000000;movable=0;resizable=0;rotatable=0;deletable=0;editable=0;connectable=0;" vertex="1" parent="vNvNnTvFDg2rq5lSiMrQ-1">
                    <mxGeometry x="650" y="370" width="120" height="40" as="geometry"/>
                </mxCell>
                <mxCell id="vNvNnTvFDg2rq5lSiMrQ-19" value="ticket:created" style="rounded=0;whiteSpace=wrap;html=1;fontSize=17;fillColor=#f8cecc;strokeColor=#b85450;fontColor=#000000;movable=0;resizable=0;rotatable=0;deletable=0;editable=0;connectable=0;" vertex="1" parent="vNvNnTvFDg2rq5lSiMrQ-1">
                    <mxGeometry x="205" y="460" width="150" height="40" as="geometry"/>
                </mxCell>
                <mxCell id="vNvNnTvFDg2rq5lSiMrQ-20" value="ticket:updated" style="rounded=0;whiteSpace=wrap;html=1;fontSize=17;fillColor=#f8cecc;strokeColor=#b85450;fontColor=#000000;movable=0;resizable=0;rotatable=0;deletable=0;editable=0;connectable=0;" vertex="1" parent="vNvNnTvFDg2rq5lSiMrQ-1">
                    <mxGeometry x="205" y="510" width="150" height="40" as="geometry"/>
                </mxCell>
                <mxCell id="vNvNnTvFDg2rq5lSiMrQ-21" value="order:created" style="rounded=0;whiteSpace=wrap;html=1;fontSize=17;fillColor=#f8cecc;strokeColor=#b85450;fontColor=#000000;movable=0;resizable=0;rotatable=0;deletable=0;editable=0;connectable=0;" vertex="1" parent="vNvNnTvFDg2rq5lSiMrQ-1">
                    <mxGeometry x="415" y="460" width="150" height="40" as="geometry"/>
                </mxCell>
                <mxCell id="vNvNnTvFDg2rq5lSiMrQ-22" value="order:cancelled" style="rounded=0;whiteSpace=wrap;html=1;fontSize=17;fillColor=#f8cecc;strokeColor=#b85450;fontColor=#000000;movable=0;resizable=0;rotatable=0;deletable=0;editable=0;connectable=0;" vertex="1" parent="vNvNnTvFDg2rq5lSiMrQ-1">
                    <mxGeometry x="415" y="510" width="150" height="40" as="geometry"/>
                </mxCell>
                <mxCell id="vNvNnTvFDg2rq5lSiMrQ-23" value="charge:created" style="rounded=0;whiteSpace=wrap;html=1;fontSize=17;fillColor=#f8cecc;strokeColor=#b85450;fontColor=#000000;movable=0;resizable=0;rotatable=0;deletable=0;editable=0;connectable=0;" vertex="1" parent="vNvNnTvFDg2rq5lSiMrQ-1">
                    <mxGeometry x="635" y="460" width="150" height="40" as="geometry"/>
                </mxCell>
                <mxCell id="vNvNnTvFDg2rq5lSiMrQ-24" value="Events Published by Each Service" style="text;html=1;strokeColor=none;fillColor=none;align=center;verticalAlign=middle;whiteSpace=wrap;rounded=0;fontSize=20;fontStyle=1;movable=0;resizable=0;rotatable=0;deletable=0;editable=0;connectable=0;" vertex="1" parent="vNvNnTvFDg2rq5lSiMrQ-1">
                    <mxGeometry x="415" y="240" width="360" height="20" as="geometry"/>
                </mxCell>
                <mxCell id="vNvNnTvFDg2rq5lSiMrQ-25" value="expiration:complete" style="rounded=0;whiteSpace=wrap;html=1;fontSize=15;fillColor=#f8cecc;strokeColor=#b85450;fontColor=#000000;movable=0;resizable=0;rotatable=0;deletable=0;editable=0;connectable=0;" vertex="1" parent="vNvNnTvFDg2rq5lSiMrQ-1">
                    <mxGeometry x="845" y="460" width="150" height="40" as="geometry"/>
                </mxCell>
            </root>
        </mxGraphModel>
    </diagram>
    <diagram id="bccKSSJ1AwTqhLBuJf_i" name="Page-10">
        <mxGraphModel dx="1532" dy="1152" grid="1" gridSize="10" guides="1" tooltips="1" connect="1" arrows="1" fold="1" page="1" pageScale="1" pageWidth="850" pageHeight="1100" math="0" shadow="0">
            <root>
                <mxCell id="X9COQwnPOYSRjeNI9Ww_-0"/>
                <mxCell id="X9COQwnPOYSRjeNI9Ww_-1" parent="X9COQwnPOYSRjeNI9Ww_-0"/>
            </root>
        </mxGraphModel>
    </diagram>
</mxfile>